<?xml version="1.0" encoding="utf-8"?>
<!-- Generator: Adobe Illustrator 28.0.0, SVG Export Plug-In . SVG Version: 6.00 Build 0)  -->
<svg version="1.1" id="Layer_1" xmlns="http://www.w3.org/2000/svg" xmlns:xlink="http://www.w3.org/1999/xlink" x="0px" y="0px"
	 viewBox="0 0 400 500" style="enable-background:new 0 0 400 500;" xml:space="preserve">
<style type="text/css">
	.st0{fill:#464646;}
	.st1{fill:#545454;}
	.st2{fill:#A4B4C6;}
	.st3{fill:#BBCADB;}
	.st4{fill:#94A2B1;}
	.st5{fill:#FFFFFF;}
	.st6{fill:#80D4BA;}
	.st7{fill:#9AE9D0;}
	.st8{fill:#6FC4A9;}
	.st9{fill:#FFCC00;}
	.st10{fill:#FFDE5B;}
	.st11{fill:#E7B900;}
	.st12{fill:#E9895E;}
	.st13{fill:#F3A07A;}
	.st14{fill:#D77A50;}
</style>
<g transform="matrix( 1, 0, 0, 1, -449,-15) ">
	<g>
		<g id="Layer0_0_MEMBER_0_FILL">
			<path class="st0" d="M775,49V28h-6c-2.6,0-3.93,1.27-4,3.8v13.4c0.07,2.53,1.4,3.8,4,3.8H775 M826,31.8c-0.07-2.53-1.4-3.8-4-3.8
				h-6v21h6c2.6,0,3.93-1.27,4-3.8V31.8 M778,28v21h16V28H778 M813,49V28h-16v21H813z"/>
			<path class="st1" d="M822,28c2.6,0,3.93,1.27,4,3.8V29c0-2.67-1.33-4-4-4h-53c-2.67,0-4,1.33-4,4v2.8c0.07-2.53,1.4-3.8,4-3.8h6
				v21h-6c-2.6,0-3.93-1.27-4-3.8V48c0,0.77,0.12,1.43,0.35,2c0.53,1.33,1.75,2,3.65,2h53c1.87,0,3.08-0.67,3.65-2
				c0.23-0.53,0.35-1.17,0.35-1.9c0-0.03,0-0.07,0-0.1v-2.8c-0.07,2.53-1.4,3.8-4,3.8h-6V28H822 M813,28v21h-16V28H813 M778,49V28
				h16v21H778z"/>
		</g>
	</g>
</g>
<g transform="matrix( 1, 0, 0, 1, -449,-15) ">
	<g>
		<g id="Layer0_0_MEMBER_1_FILL">
			<path class="st0" d="M469,78c-2.6,0-3.93,1.27-4,3.8v13.4c0.07,2.53,1.4,3.8,4,3.8h6V78H469 M518,81.8c-0.07-2.53-1.4-3.8-4-3.8
				h-6v21h6c2.6,0,3.93-1.27,4-3.8V81.8 M490,99V78h-12v21H490 M505,78h-12v21h12V78z"/>
			<path class="st1" d="M518,79c0-2.67-1.33-4-4-4h-45c-2.67,0-4,1.33-4,4v2.8c0.07-2.53,1.4-3.8,4-3.8h6v21h-6
				c-2.6,0-3.93-1.27-4-3.8V98c0,0.77,0.12,1.43,0.35,2c0.53,1.33,1.75,2,3.65,2h45c1.87,0,3.08-0.67,3.65-2
				c0.23-0.53,0.35-1.17,0.35-1.9c0-0.03,0-0.07,0-0.1v-2.8c-0.07,2.53-1.4,3.8-4,3.8h-6V78h6c2.6,0,3.93,1.27,4,3.8V79 M493,78h12
				v21h-12V78 M490,78v21h-12V78H490z"/>
		</g>
	</g>
</g>
<g transform="matrix( 1, 0, 0, 1, -449,-15) ">
	<g>
		<g id="Layer0_0_MEMBER_2_FILL">
			<path class="st0" d="M465,31.8v13.4c0.07,2.53,1.4,3.8,4,3.8h6V28h-6C466.4,28,465.07,29.27,465,31.8 M514,28h-6v21h6
				c2.6,0,3.93-1.27,4-3.8V31.8C517.93,29.27,516.6,28,514,28 M490,49V28h-12v21H490 M505,49V28h-12v21H505z"/>
			<path class="st1" d="M518,31.8V29c0-2.67-1.33-4-4-4h-45c-2.67,0-4,1.33-4,4v2.8c0.07-2.53,1.4-3.8,4-3.8h6v21h-6
				c-2.6,0-3.93-1.27-4-3.8V48c0,0.77,0.12,1.43,0.35,2c0.53,1.33,1.75,2,3.65,2h45c1.87,0,3.08-0.67,3.65-2
				c0.23-0.53,0.35-1.17,0.35-1.9c0-0.03,0-0.07,0-0.1v-2.8c-0.07,2.53-1.4,3.8-4,3.8h-6V28h6C516.6,28,517.93,29.27,518,31.8
				 M505,28v21h-12V28H505 M490,28v21h-12V28H490z"/>
		</g>
	</g>
</g>
<g transform="matrix( 1, 0, 0, 1, -449,-15) ">
	<g>
		<g id="Layer0_0_MEMBER_3_FILL">
			<path class="st2" d="M509,49c0-3.87-1.87-5.87-5.6-6h-38.75c-3.77,0.13-5.65,2.13-5.65,6v29c0,3.87,1.88,5.87,5.65,6h38.75
				c3.73-0.13,5.6-2.13,5.6-6V49z"/>
			<path class="st3" d="M511,49c0-3.87-1.87-5.87-5.6-6h-2c3.73,0.13,5.6,2.13,5.6,6v29c0,3.87-1.87,5.87-5.6,6h2
				c3.73-0.13,5.6-2.13,5.6-6V49z"/>
			<path class="st4" d="M533,49c0-4-2-6-6-6h-21.6c3.73,0.13,5.6,2.13,5.6,6v29c0,3.87-1.87,5.87-5.6,6H527c4,0,6-2,6-6V49z"/>
		</g>
	</g>
</g>
<g transform="matrix( 1, 0, 0, 1, -449,-15) ">
	<g>
		<g id="Layer0_0_MEMBER_3_MEMBER_0_FILL">
			<path class="st5" d="M519.7,69c-0.47,0.7-0.7,1.52-0.7,2.45v0.1c0,0.93,0.23,1.75,0.7,2.45c0.5,0.67,1.1,1,1.8,1
				c0.67,0,1.25-0.33,1.75-1c0.5-0.7,0.75-1.52,0.75-2.45v-0.1c0-0.93-0.25-1.75-0.75-2.45c-0.5-0.67-1.08-1-1.75-1
				C520.8,68,520.2,68.33,519.7,69 M523.25,54c-0.5-0.67-1.08-1-1.75-1c-0.7,0-1.3,0.33-1.8,1c-0.47,0.7-0.7,1.52-0.7,2.45v0.1
				c0,0.93,0.23,1.75,0.7,2.45c0.5,0.67,1.1,1,1.8,1c0.67,0,1.25-0.33,1.75-1c0.5-0.7,0.75-1.52,0.75-2.45v-0.1
				C524,55.52,523.75,54.7,523.25,54z"/>
		</g>
	</g>
</g>
<g transform="matrix( 1, 0, 0, 1, -449,-15) ">
	<g>
		<g id="Layer0_0_MEMBER_4_FILL">
			<path class="st0" d="M614,78h-6v21h6c2.6,0,3.93-1.27,4-3.8V81.8C617.93,79.27,616.6,78,614,78 M575,78h-6
				c-2.6,0-3.93,1.27-4,3.8v13.4c0.07,2.53,1.4,3.8,4,3.8h6V78 M605,78h-12v21h12V78 M590,78h-12v21h12V78z"/>
			<path class="st1" d="M569,78h6v21h-6c-2.6,0-3.93-1.27-4-3.8V98c0,0.77,0.12,1.43,0.35,2c0.53,1.33,1.75,2,3.65,2h45
				c1.87,0,3.08-0.67,3.65-2c0.23-0.53,0.35-1.17,0.35-1.9c0-0.03,0-0.07,0-0.1v-2.8c-0.07,2.53-1.4,3.8-4,3.8h-6V78h6
				c2.6,0,3.93,1.27,4,3.8V79c0-2.67-1.33-4-4-4h-45c-2.67,0-4,1.33-4,4v2.8C565.07,79.27,566.4,78,569,78 M578,78h12v21h-12V78
				 M593,78h12v21h-12V78z"/>
		</g>
	</g>
</g>
<g transform="matrix( 1, 0, 0, 1, -449,-15) ">
	<g>
		<g id="Layer0_0_MEMBER_5_FILL">
			<path class="st0" d="M569,49h6V28h-6c-2.6,0-3.93,1.27-4,3.8v13.4C565.07,47.73,566.4,49,569,49 M614,28h-6v21h6
				c2.6,0,3.93-1.27,4-3.8V31.8C617.93,29.27,616.6,28,614,28 M593,49h12V28h-12V49 M578,28v21h12V28H578z"/>
			<path class="st1" d="M618,31.8V29c0-2.67-1.33-4-4-4h-45c-2.67,0-4,1.33-4,4v2.8c0.07-2.53,1.4-3.8,4-3.8h6v21h-6
				c-2.6,0-3.93-1.27-4-3.8V48c0,0.77,0.12,1.43,0.35,2c0.53,1.33,1.75,2,3.65,2h45c1.87,0,3.08-0.67,3.65-2
				c0.23-0.53,0.35-1.17,0.35-1.9c0-0.03,0-0.07,0-0.1v-2.8c-0.07,2.53-1.4,3.8-4,3.8h-6V28h6C616.6,28,617.93,29.27,618,31.8
				 M578,49V28h12v21H578 M605,49h-12V28h12V49z"/>
		</g>
	</g>
</g>
<g transform="matrix( 1, 0, 0, 1, -449,-15) ">
	<g>
		<g id="Layer0_0_MEMBER_6_FILL">
			<path class="st6" d="M615,49c0-3.87-1.87-5.87-5.6-6h-44.75c-3.77,0.13-5.65,2.13-5.65,6v29c0,3.87,1.88,5.87,5.65,6h44.75
				c3.73-0.13,5.6-2.13,5.6-6V49z"/>
			<path class="st7" d="M617,49c0-3.87-1.87-5.87-5.6-6h-2c3.73,0.13,5.6,2.13,5.6,6v29c0,3.87-1.87,5.87-5.6,6h2
				c3.73-0.13,5.6-2.13,5.6-6V49z"/>
			<path class="st8" d="M627,43h-15.6c3.73,0.13,5.6,2.13,5.6,6v29c0,3.87-1.87,5.87-5.6,6H627c4,0,6-2,6-6V49C633,45,631,43,627,43
				z"/>
		</g>
	</g>
</g>
<g transform="matrix( 1, 0, 0, 1, -449,-15) ">
	<g>
		<g id="Layer0_0_MEMBER_6_MEMBER_0_FILL">
			<path class="st5" d="M628,56.55v-0.1c0-0.93-0.25-1.75-0.75-2.45c-0.5-0.67-1.08-1-1.75-1c-0.7,0-1.3,0.33-1.8,1
				c-0.47,0.7-0.7,1.52-0.7,2.45v0.1c0,0.93,0.23,1.75,0.7,2.45c0.5,0.67,1.1,1,1.8,1c0.67,0,1.25-0.33,1.75-1
				C627.75,58.3,628,57.48,628,56.55 M628,71.55v-0.1c0-0.93-0.25-1.75-0.75-2.45c-0.5-0.67-1.08-1-1.75-1c-0.7,0-1.3,0.33-1.8,1
				c-0.47,0.7-0.7,1.52-0.7,2.45v0.1c0,0.93,0.23,1.75,0.7,2.45c0.5,0.67,1.1,1,1.8,1c0.67,0,1.25-0.33,1.75-1
				C627.75,73.3,628,72.48,628,71.55z"/>
		</g>
	</g>
</g>
<g transform="matrix( 1, 0, 0, 1, -449,-15) ">
	<g>
		<g id="Layer0_0_MEMBER_7_FILL">
			<path class="st0" d="M714,78h-6v21h6c2.6,0,3.93-1.27,4-3.8V81.8C717.93,79.27,716.6,78,714,78 M669,78c-2.6,0-3.93,1.27-4,3.8
				v13.4c0.07,2.53,1.4,3.8,4,3.8h6V78H669 M690,78h-12v21h12V78 M705,78h-12v21h12V78z"/>
			<path class="st1" d="M665,79v2.8c0.07-2.53,1.4-3.8,4-3.8h6v21h-6c-2.6,0-3.93-1.27-4-3.8V98c0,0.77,0.12,1.43,0.35,2
				c0.53,1.33,1.75,2,3.65,2h45c1.87,0,3.08-0.67,3.65-2c0.23-0.53,0.35-1.17,0.35-1.9c0-0.03,0-0.07,0-0.1v-2.8
				c-0.07,2.53-1.4,3.8-4,3.8h-6V78h6c2.6,0,3.93,1.27,4,3.8V79c0-2.67-1.33-4-4-4h-45C666.33,75,665,76.33,665,79 M693,78h12v21
				h-12V78 M678,78h12v21h-12V78z"/>
		</g>
	</g>
</g>
<g transform="matrix( 1, 0, 0, 1, -449,-15) ">
	<g>
		<g id="Layer0_0_MEMBER_8_FILL">
			<path class="st0" d="M665,31.8v13.4c0.07,2.53,1.4,3.8,4,3.8h6V28h-6C666.4,28,665.07,29.27,665,31.8 M708,28v21h6
				c2.6,0,3.93-1.27,4-3.8V31.8c-0.07-2.53-1.4-3.8-4-3.8H708 M690,49V28h-12v21H690 M693,49h12V28h-12V49z"/>
			<path class="st1" d="M708,49V28h6c2.6,0,3.93,1.27,4,3.8V29c0-2.67-1.33-4-4-4h-45c-2.67,0-4,1.33-4,4v2.8
				c0.07-2.53,1.4-3.8,4-3.8h6v21h-6c-2.6,0-3.93-1.27-4-3.8V48c0,0.77,0.12,1.43,0.35,2c0.53,1.33,1.75,2,3.65,2h45
				c1.87,0,3.08-0.67,3.65-2c0.23-0.53,0.35-1.17,0.35-1.9c0-0.03,0-0.07,0-0.1v-2.8c-0.07,2.53-1.4,3.8-4,3.8H708 M705,49h-12V28
				h12V49 M690,28v21h-12V28H690z"/>
		</g>
	</g>
</g>
<g transform="matrix( 1, 0, 0, 1, -449,-15) ">
	<g>
		<g id="Layer0_0_MEMBER_9_FILL">
			<path class="st9" d="M709,39c0-3.87-1.87-5.87-5.6-6h-38.75c-3.77,0.13-5.65,2.13-5.65,6v49c0,1.69,0.35,3.02,1.05,4
				c0.95,1.26,2.48,1.92,4.6,2h38.75c2.1-0.08,3.6-0.74,4.5-2c0.73-0.98,1.1-2.31,1.1-4V39z"/>
			<path class="st10" d="M705.4,33h-2c3.73,0.13,5.6,2.13,5.6,6v49c0,1.69-0.37,3.02-1.1,4c-0.9,1.26-2.4,1.92-4.5,2h2
				c2.1-0.08,3.6-0.74,4.5-2c0.73-0.98,1.1-2.31,1.1-4V39C711,35.13,709.13,33.13,705.4,33z"/>
			<path class="st11" d="M733,39c0-2.71-0.92-4.51-2.75-5.4c-0.87-0.4-1.96-0.6-3.25-0.6h-21.6c3.73,0.13,5.6,2.13,5.6,6v49
				c0,1.69-0.37,3.02-1.1,4c-0.9,1.26-2.4,1.92-4.5,2H727c4,0,6-2,6-6V39z"/>
		</g>
	</g>
</g>
<g transform="matrix( 1, 0, 0, 1, -449,-15) ">
	<g>
		<g id="Layer0_0_MEMBER_9_MEMBER_0_FILL">
			<path class="st5" d="M719,77.55c0,0.93,0.23,1.75,0.7,2.45c0.5,0.67,1.1,1,1.8,1c0.67,0,1.25-0.33,1.75-1
				c0.5-0.7,0.75-1.52,0.75-2.45v-0.1c0-0.93-0.25-1.75-0.75-2.45c-0.5-0.67-1.08-1-1.75-1c-0.7,0-1.3,0.33-1.8,1
				c-0.47,0.7-0.7,1.52-0.7,2.45V77.55 M723.25,48c-0.5-0.67-1.08-1-1.75-1c-0.7,0-1.3,0.33-1.8,1c-0.47,0.7-0.7,1.52-0.7,2.45v0.1
				c0,0.93,0.23,1.75,0.7,2.45c0.5,0.67,1.1,1,1.8,1c0.67,0,1.25-0.33,1.75-1c0.5-0.7,0.75-1.52,0.75-2.45v-0.1
				C724,49.52,723.75,48.7,723.25,48z"/>
		</g>
	</g>
</g>
<g transform="matrix( 1, 0, 0, 1, -449,-15) ">
	<g>
		<g id="Layer0_0_MEMBER_10_FILL">
			<path class="st0" d="M769,78c-2.6,0-3.93,1.27-4,3.8v13.4c0.07,2.53,1.4,3.8,4,3.8h6V78H769 M822,78h-6v21h6
				c2.6,0,3.93-1.27,4-3.8V81.8C825.93,79.27,824.6,78,822,78 M794,78h-16v21h16V78 M813,99V78h-16v21H813z"/>
			<path class="st1" d="M816,78h6c2.6,0,3.93,1.27,4,3.8V79c0-2.67-1.33-4-4-4h-53c-2.67,0-4,1.33-4,4v2.8c0.07-2.53,1.4-3.8,4-3.8
				h6v21h-6c-2.6,0-3.93-1.27-4-3.8V98c0,0.77,0.12,1.43,0.35,2c0.53,1.33,1.75,2,3.65,2h53c1.87,0,3.08-0.67,3.65-2
				c0.23-0.53,0.35-1.17,0.35-1.9c0-0.03,0-0.07,0-0.1v-2.8c-0.07,2.53-1.4,3.8-4,3.8h-6V78 M813,78v21h-16V78H813 M778,78h16v21
				h-16V78z"/>
		</g>
	</g>
</g>
<g transform="matrix( 1, 0, 0, 1, -449,-15) ">
	<g>
		<g id="Layer0_0_MEMBER_11_FILL">
			<path class="st12" d="M809,49c0-3.87-1.87-5.87-5.6-6h-38.75c-3.77,0.13-5.65,2.13-5.65,6v29c0,3.87,1.88,5.87,5.65,6h38.75
				c3.73-0.13,5.6-2.13,5.6-6V49z"/>
			<path class="st13" d="M811,78V49c0-3.87-1.87-5.87-5.6-6h-2c3.73,0.13,5.6,2.13,5.6,6v29c0,3.87-1.87,5.87-5.6,6h2
				C809.13,83.87,811,81.87,811,78z"/>
			<path class="st14" d="M833,49c0-4-2-6-6-6h-21.6c3.73,0.13,5.6,2.13,5.6,6v29c0,3.87-1.87,5.87-5.6,6H827c4,0,6-2,6-6V49z"/>
		</g>
	</g>
</g>
<g transform="matrix( 1, 0, 0, 1, -449,-15) ">
	<g>
		<g id="Layer0_0_MEMBER_11_MEMBER_0_FILL">
			<path class="st5" d="M819.7,69c-0.47,0.7-0.7,1.52-0.7,2.45v0.1c0,0.93,0.23,1.75,0.7,2.45c0.5,0.67,1.1,1,1.8,1
				c0.67,0,1.25-0.33,1.75-1c0.5-0.7,0.75-1.52,0.75-2.45v-0.1c0-0.93-0.25-1.75-0.75-2.45c-0.5-0.67-1.08-1-1.75-1
				C820.8,68,820.2,68.33,819.7,69 M821.5,60c0.67,0,1.25-0.33,1.75-1c0.5-0.7,0.75-1.52,0.75-2.45v-0.1c0-0.93-0.25-1.75-0.75-2.45
				c-0.5-0.67-1.08-1-1.75-1c-0.7,0-1.3,0.33-1.8,1c-0.47,0.7-0.7,1.52-0.7,2.45v0.1c0,0.93,0.23,1.75,0.7,2.45
				C820.2,59.67,820.8,60,821.5,60z"/>
		</g>
	</g>
</g>
<g transform="matrix( 1, 0, 0, 1, -449,-15) ">
	<g>
		<g id="Layer0_0_MEMBER_12_FILL">
			<path class="st0" d="M769,128c-2.6,0-3.93,1.27-4,3.8v13.4c0.07,2.53,1.4,3.8,4,3.8h6v-21H769 M822,128h-6v21h6
				c2.6,0,3.93-1.27,4-3.8v-13.4C825.93,129.27,824.6,128,822,128 M794,128h-16v21h16V128 M813,149v-21h-16v21H813z"/>
			<path class="st1" d="M816,128h6c2.6,0,3.93,1.27,4,3.8V129c0-2.67-1.33-4-4-4h-53c-2.67,0-4,1.33-4,4v2.8
				c0.07-2.53,1.4-3.8,4-3.8h6v21h-6c-2.6,0-3.93-1.27-4-3.8v2.8c0,0.77,0.12,1.43,0.35,2c0.53,1.33,1.75,2,3.65,2h53
				c1.87,0,3.08-0.67,3.65-2c0.23-0.53,0.35-1.17,0.35-1.9c0-0.03,0-0.07,0-0.1v-2.8c-0.07,2.53-1.4,3.8-4,3.8h-6V128 M813,128v21
				h-16v-21H813 M778,128h16v21h-16V128z"/>
		</g>
	</g>
</g>
<g transform="matrix( 1, 0, 0, 1, -449,-15) ">
	<g>
		<g id="Layer0_0_MEMBER_13_FILL">
			<path class="st0" d="M469,178c-2.6,0-3.93,1.27-4,3.8v13.4c0.07,2.53,1.4,3.8,4,3.8h6v-21H469 M514,178h-6v21h6
				c2.6,0,3.93-1.27,4-3.8v-13.4C517.93,179.27,516.6,178,514,178 M490,178h-12v21h12V178 M505,178h-12v21h12V178z"/>
			<path class="st1" d="M518,179c0-2.67-1.33-4-4-4h-45c-2.67,0-4,1.33-4,4v2.8c0.07-2.53,1.4-3.8,4-3.8h6v21h-6
				c-2.6,0-3.93-1.27-4-3.8v2.8c0,0.77,0.12,1.43,0.35,2c0.53,1.33,1.75,2,3.65,2h45c1.87,0,3.08-0.67,3.65-2
				c0.23-0.53,0.35-1.17,0.35-1.9c0-0.03,0-0.07,0-0.1v-2.8c-0.07,2.53-1.4,3.8-4,3.8h-6v-21h6c2.6,0,3.93,1.27,4,3.8V179 M493,178
				h12v21h-12V178 M478,178h12v21h-12V178z"/>
		</g>
	</g>
</g>
<g transform="matrix( 1, 0, 0, 1, -449,-15) ">
	<g>
		<g id="Layer0_0_MEMBER_14_FILL">
			<path class="st0" d="M469,128c-2.6,0-3.93,1.27-4,3.8v13.4c0.07,2.53,1.4,3.8,4,3.8h6v-21H469 M518,131.8
				c-0.07-2.53-1.4-3.8-4-3.8h-6v21h6c2.6,0,3.93-1.27,4-3.8V131.8 M490,149v-21h-12v21H490 M505,128h-12v21h12V128z"/>
			<path class="st1" d="M514,128c2.6,0,3.93,1.27,4,3.8V129c0-2.67-1.33-4-4-4h-45c-2.67,0-4,1.33-4,4v2.8c0.07-2.53,1.4-3.8,4-3.8
				h6v21h-6c-2.6,0-3.93-1.27-4-3.8v2.8c0,0.77,0.12,1.43,0.35,2c0.53,1.33,1.75,2,3.65,2h45c1.87,0,3.08-0.67,3.65-2
				c0.23-0.53,0.35-1.17,0.35-1.9c0-0.03,0-0.07,0-0.1v-2.8c-0.07,2.53-1.4,3.8-4,3.8h-6v-21H514 M493,128h12v21h-12V128 M490,128
				v21h-12v-21H490z"/>
		</g>
	</g>
</g>
<g transform="matrix( 1, 0, 0, 1, -449,-15) ">
	<g>
		<g id="Layer0_0_MEMBER_15_FILL">
			<path class="st4" d="M533,178v-29c0-4-2-6-6-6h-62.35c-3.77,0.13-5.65,2.13-5.65,6v29c0,3.87,1.88,5.87,5.65,6H527
				C531,184,533,182,533,178z"/>
		</g>
	</g>
</g>
<g transform="matrix( 1, 0, 0, 1, -449,-15) ">
	<g>
		<g id="Layer0_0_MEMBER_16_FILL">
			<path class="st0" d="M614,178h-6v21h6c2.6,0,3.93-1.27,4-3.8v-13.4C617.93,179.27,616.6,178,614,178 M565,181.8v13.4
				c0.07,2.53,1.4,3.8,4,3.8h6v-21h-6C566.4,178,565.07,179.27,565,181.8 M605,178h-12v21h12V178 M590,178h-12v21h12V178z"/>
			<path class="st1" d="M565,179v2.8c0.07-2.53,1.4-3.8,4-3.8h6v21h-6c-2.6,0-3.93-1.27-4-3.8v2.8c0,0.77,0.12,1.43,0.35,2
				c0.53,1.33,1.75,2,3.65,2h45c1.87,0,3.08-0.67,3.65-2c0.23-0.53,0.35-1.17,0.35-1.9c0-0.03,0-0.07,0-0.1v-2.8
				c-0.07,2.53-1.4,3.8-4,3.8h-6v-21h6c2.6,0,3.93,1.27,4,3.8V179c0-2.67-1.33-4-4-4h-45C566.33,175,565,176.33,565,179 M578,178h12
				v21h-12V178 M593,178h12v21h-12V178z"/>
		</g>
	</g>
</g>
<g transform="matrix( 1, 0, 0, 1, -449,-15) ">
	<g>
		<g id="Layer0_0_MEMBER_17_FILL">
			<path class="st0" d="M618,131.8c-0.07-2.53-1.4-3.8-4-3.8h-6v21h6c2.6,0,3.93-1.27,4-3.8V131.8 M565,131.8v13.4
				c0.07,2.53,1.4,3.8,4,3.8h6v-21h-6C566.4,128,565.07,129.27,565,131.8 M605,128h-12v21h12V128 M590,128h-12v21h12V128z"/>
			<path class="st1" d="M565,129v2.8c0.07-2.53,1.4-3.8,4-3.8h6v21h-6c-2.6,0-3.93-1.27-4-3.8v2.8c0,0.77,0.12,1.43,0.35,2
				c0.53,1.33,1.75,2,3.65,2h45c1.87,0,3.08-0.67,3.65-2c0.23-0.53,0.35-1.17,0.35-1.9c0-0.03,0-0.07,0-0.1v-2.8
				c-0.07,2.53-1.4,3.8-4,3.8h-6v-21h6c2.6,0,3.93,1.27,4,3.8V129c0-2.67-1.33-4-4-4h-45C566.33,125,565,126.33,565,129 M578,128h12
				v21h-12V128 M593,128h12v21h-12V128z"/>
		</g>
	</g>
</g>
<g transform="matrix( 1, 0, 0, 1, -449,-15) ">
	<g>
		<g id="Layer0_0_MEMBER_18_FILL">
			<path class="st8" d="M559,178c0,3.87,1.88,5.87,5.65,6H627c4,0,6-2,6-6v-29c0-4-2-6-6-6h-62.35c-3.77,0.13-5.65,2.13-5.65,6V178z
				"/>
		</g>
	</g>
</g>
<g transform="matrix( 1, 0, 0, 1, -449,-15) ">
	<g>
		<g id="Layer0_0_MEMBER_19_FILL">
			<path class="st0" d="M714,178h-6v21h6c2.6,0,3.93-1.27,4-3.8v-13.4C717.93,179.27,716.6,178,714,178 M669,178
				c-2.6,0-3.93,1.27-4,3.8v13.4c0.07,2.53,1.4,3.8,4,3.8h6v-21H669 M690,178h-12v21h12V178 M705,178h-12v21h12V178z"/>
			<path class="st1" d="M665,179v2.8c0.07-2.53,1.4-3.8,4-3.8h6v21h-6c-2.6,0-3.93-1.27-4-3.8v2.8c0,0.77,0.12,1.43,0.35,2
				c0.53,1.33,1.75,2,3.65,2h45c1.87,0,3.08-0.67,3.65-2c0.23-0.53,0.35-1.17,0.35-1.9c0-0.03,0-0.07,0-0.1v-2.8
				c-0.07,2.53-1.4,3.8-4,3.8h-6v-21h6c2.6,0,3.93,1.27,4,3.8V179c0-2.67-1.33-4-4-4h-45C666.33,175,665,176.33,665,179 M693,178h12
				v21h-12V178 M678,178h12v21h-12V178z"/>
		</g>
	</g>
</g>
<g transform="matrix( 1, 0, 0, 1, -449,-15) ">
	<g>
		<g id="Layer0_0_MEMBER_20_FILL">
			<path class="st0" d="M669,128c-2.6,0-3.93,1.27-4,3.8v13.4c0.07,2.53,1.4,3.8,4,3.8h6v-21H669 M714,128h-6v21h6
				c2.6,0,3.93-1.27,4-3.8v-13.4C717.93,129.27,716.6,128,714,128 M690,128h-12v21h12V128 M705,128h-12v21h12V128z"/>
			<path class="st1" d="M708,128h6c2.6,0,3.93,1.27,4,3.8V129c0-2.67-1.33-4-4-4h-45c-2.67,0-4,1.33-4,4v2.8
				c0.07-2.53,1.4-3.8,4-3.8h6v21h-6c-2.6,0-3.93-1.27-4-3.8v2.8c0,0.77,0.12,1.43,0.35,2c0.53,1.33,1.75,2,3.65,2h45
				c1.87,0,3.08-0.67,3.65-2c0.23-0.53,0.35-1.17,0.35-1.9c0-0.03,0-0.07,0-0.1v-2.8c-0.07,2.53-1.4,3.8-4,3.8h-6V128 M693,128h12
				v21h-12V128 M678,128h12v21h-12V128z"/>
		</g>
	</g>
</g>
<g transform="matrix( 1, 0, 0, 1, -449,-15) ">
	<g>
		<g id="Layer0_0_MEMBER_21_FILL">
			<path class="st11" d="M664.65,133c-3.77,0.13-5.65,2.13-5.65,6v49c0,3.87,1.88,5.87,5.65,6H727c4,0,6-2,6-6v-49c0-4-2-6-6-6
				H664.65z"/>
		</g>
	</g>
</g>
<g transform="matrix( 1, 0, 0, 1, -449,-15) ">
	<g>
		<g id="Layer0_0_MEMBER_22_FILL">
			<path class="st0" d="M769,178c-2.6,0-3.93,1.27-4,3.8v13.4c0.07,2.53,1.4,3.8,4,3.8h6v-21H769 M822,178h-6v21h6
				c2.6,0,3.93-1.27,4-3.8v-13.4C825.93,179.27,824.6,178,822,178 M813,178h-16v21h16V178 M794,178h-16v21h16V178z"/>
			<path class="st1" d="M816,178h6c2.6,0,3.93,1.27,4,3.8V179c0-2.67-1.33-4-4-4h-53c-2.67,0-4,1.33-4,4v2.8
				c0.07-2.53,1.4-3.8,4-3.8h6v21h-6c-2.6,0-3.93-1.27-4-3.8v2.8c0,0.77,0.12,1.43,0.35,2c0.53,1.33,1.75,2,3.65,2h53
				c1.87,0,3.08-0.67,3.65-2c0.23-0.53,0.35-1.17,0.35-1.9c0-0.03,0-0.07,0-0.1v-2.8c-0.07,2.53-1.4,3.8-4,3.8h-6V178 M778,178h16
				v21h-16V178 M797,178h16v21h-16V178z"/>
		</g>
	</g>
</g>
<g transform="matrix( 1, 0, 0, 1, -449,-15) ">
	<g>
		<g id="Layer0_0_MEMBER_23_FILL">
			<path class="st14" d="M833,178v-29c0-4-2-6-6-6h-62.35c-3.77,0.13-5.65,2.13-5.65,6v29c0,3.87,1.88,5.87,5.65,6H827
				C831,184,833,182,833,178z"/>
		</g>
	</g>
</g>
<g transform="matrix( 1, 0, 0, 1, -449,-15) ">
	<g>
		<g id="Layer0_0_MEMBER_24_FILL">
			<path class="st0" d="M463,408c-2.6,0-3.93,1.27-4,3.8v13.4c0.07,2.53,1.4,3.8,4,3.8h6v-21H463 M512,411.8
				c-0.07-2.53-1.4-3.8-4-3.8h-6v21h6c2.6,0,3.93-1.27,4-3.8V411.8 M484,408h-12v21h12V408 M499,408h-12v21h12V408z"/>
			<path class="st1" d="M508,408c2.6,0,3.93,1.27,4,3.8V409c0-2.67-1.33-4-4-4h-45c-2.67,0-4,1.33-4,4v2.8c0.07-2.53,1.4-3.8,4-3.8
				h6v21h-6c-2.6,0-3.93-1.27-4-3.8v2.8c0,0.77,0.12,1.43,0.35,2c0.53,1.33,1.75,2,3.65,2h45c1.87,0,3.08-0.67,3.65-2
				c0.23-0.53,0.35-1.17,0.35-1.9c0-0.03,0-0.07,0-0.1v-2.8c-0.07,2.53-1.4,3.8-4,3.8h-6v-21H508 M487,408h12v21h-12V408 M472,408
				h12v21h-12V408z"/>
		</g>
	</g>
</g>
<g transform="matrix( 1, 0, 0, 1, -449,-15) ">
	<g>
		<g id="Layer0_0_MEMBER_25_FILL">
			<path class="st0" d="M463,458c-2.6,0-3.93,1.27-4,3.8v13.4c0.07,2.53,1.4,3.8,4,3.8h6v-21H463 M520,461.8
				c-0.07-2.53-1.4-3.8-4-3.8h-6v21h6c2.6,0,3.93-1.27,4-3.8V461.8 M488,479v-21h-16v21H488 M491,458v21h16v-21H491z"/>
			<path class="st1" d="M520,461.8V459c0-2.67-1.33-4-4-4h-53c-2.67,0-4,1.33-4,4v2.8c0.07-2.53,1.4-3.8,4-3.8h6v21h-6
				c-2.6,0-3.93-1.27-4-3.8v2.8c0,0.77,0.12,1.43,0.35,2c0.53,1.33,1.75,2,3.65,2h53c1.87,0,3.08-0.67,3.65-2
				c0.23-0.53,0.35-1.17,0.35-1.9c0-0.03,0-0.07,0-0.1v-2.8c-0.07,2.53-1.4,3.8-4,3.8h-6v-21h6C518.6,458,519.93,459.27,520,461.8
				 M491,479v-21h16v21H491 M488,458v21h-16v-21H488z"/>
		</g>
	</g>
</g>
<g transform="matrix( 1, 0, 0, 1, -449,-15) ">
	<g>
		<g id="Layer0_0_MEMBER_26_FILL">
			<path class="st4" d="M464.65,323c-3.77,0.13-5.65,2.13-5.65,6v29c0,3.87,1.88,5.87,5.65,6H527c4,0,6-2,6-6v-29c0-4-2-6-6-6
				H464.65z"/>
		</g>
	</g>
</g>
<g transform="matrix( 1, 0, 0, 1, -449,-15) ">
	<g>
		<g id="Layer0_0_MEMBER_27_FILL">
			<path class="st8" d="M564.65,323c-3.77,0.13-5.65,2.13-5.65,6v29c0,3.87,1.88,5.87,5.65,6H627c4,0,6-2,6-6v-29c0-4-2-6-6-6
				H564.65z"/>
		</g>
	</g>
</g>
<g transform="matrix( 1, 0, 0, 1, -449,-15) ">
	<g>
		<g id="Layer0_0_MEMBER_28_FILL">
			<path class="st11" d="M664.65,313c-3.77,0.13-5.65,2.13-5.65,6v49c0,3.87,1.88,5.87,5.65,6H727c4,0,6-2,6-6v-49c0-4-2-6-6-6
				H664.65z"/>
		</g>
	</g>
</g>
<g transform="matrix( 1, 0, 0, 1, -449,-15) ">
	<g>
		<g id="Layer0_0_MEMBER_29_FILL">
			<path class="st14" d="M764.65,323c-3.77,0.13-5.65,2.13-5.65,6v29c0,3.87,1.88,5.87,5.65,6H827c4,0,6-2,6-6v-29c0-4-2-6-6-6
				H764.65z"/>
		</g>
	</g>
</g>
<g transform="matrix( 1, 0, 0, 1, -449,-15) ">
	<g>
		<g id="Layer0_0_MEMBER_30_FILL">
			<path class="st3" d="M511,242c0-3.87-1.87-5.87-5.6-6h-2c3.73,0.13,5.6,2.13,5.6,6v29c0,3.87-1.87,5.87-5.6,6h2
				c3.73-0.13,5.6-2.13,5.6-6V242z"/>
			<path class="st4" d="M533,242c0-4-2-6-6-6h-21.6c3.73,0.13,5.6,2.13,5.6,6v29c0,3.87-1.87,5.87-5.6,6H527c4,0,6-2,6-6V242z"/>
			<path class="st2" d="M464.65,236c-3.77,0.13-5.65,2.13-5.65,6v29c0,3.87,1.88,5.87,5.65,6h38.75c3.73-0.13,5.6-2.13,5.6-6v-29
				c0-3.87-1.87-5.87-5.6-6H464.65z"/>
		</g>
	</g>
</g>
<g transform="matrix( 1, 0, 0, 1, -449,-15) ">
	<g>
		<g id="Layer0_0_MEMBER_30_MEMBER_0_FILL">
			<path class="st5" d="M524,264.55v-0.1c0-0.93-0.25-1.75-0.75-2.45c-0.5-0.67-1.08-1-1.75-1c-0.7,0-1.3,0.33-1.8,1
				c-0.47,0.7-0.7,1.52-0.7,2.45v0.1c0,0.93,0.23,1.75,0.7,2.45c0.5,0.67,1.1,1,1.8,1c0.67,0,1.25-0.33,1.75-1
				C523.75,266.3,524,265.48,524,264.55 M521.5,246c-0.7,0-1.3,0.33-1.8,1c-0.47,0.7-0.7,1.52-0.7,2.45v0.1
				c0,0.93,0.23,1.75,0.7,2.45c0.5,0.67,1.1,1,1.8,1c0.67,0,1.25-0.33,1.75-1c0.5-0.7,0.75-1.52,0.75-2.45v-0.1
				c0-0.93-0.25-1.75-0.75-2.45C522.75,246.33,522.17,246,521.5,246z"/>
		</g>
	</g>
</g>
<g transform="matrix( 1, 0, 0, 1, -449,-15) ">
	<g>
		<g id="Layer0_0_MEMBER_31_FILL">
			<path class="st6" d="M615,242c0-3.87-1.87-5.87-5.6-6h-44.75c-3.77,0.13-5.65,2.13-5.65,6v29c0,3.87,1.88,5.87,5.65,6h44.75
				c3.73-0.13,5.6-2.13,5.6-6V242z"/>
			<path class="st7" d="M617,242c0-3.87-1.87-5.87-5.6-6h-2c3.73,0.13,5.6,2.13,5.6,6v29c0,3.87-1.87,5.87-5.6,6h2
				c3.73-0.13,5.6-2.13,5.6-6V242z"/>
			<path class="st8" d="M627,236h-15.6c3.73,0.13,5.6,2.13,5.6,6v29c0,3.87-1.87,5.87-5.6,6H627c4,0,6-2,6-6v-29
				C633,238,631,236,627,236z"/>
		</g>
	</g>
</g>
<g transform="matrix( 1, 0, 0, 1, -449,-15) ">
	<g>
		<g id="Layer0_0_MEMBER_31_MEMBER_0_FILL">
			<path class="st5" d="M628,264.55v-0.1c0-0.93-0.25-1.75-0.75-2.45c-0.5-0.67-1.08-1-1.75-1c-0.7,0-1.3,0.33-1.8,1
				c-0.47,0.7-0.7,1.52-0.7,2.45v0.1c0,0.93,0.23,1.75,0.7,2.45c0.5,0.67,1.1,1,1.8,1c0.67,0,1.25-0.33,1.75-1
				C627.75,266.3,628,265.48,628,264.55 M627.25,247c-0.5-0.67-1.08-1-1.75-1c-0.7,0-1.3,0.33-1.8,1c-0.47,0.7-0.7,1.52-0.7,2.45
				v0.1c0,0.93,0.23,1.75,0.7,2.45c0.5,0.67,1.1,1,1.8,1c0.67,0,1.25-0.33,1.75-1c0.5-0.7,0.75-1.52,0.75-2.45v-0.1
				C628,248.52,627.75,247.7,627.25,247z"/>
		</g>
	</g>
</g>
<g transform="matrix( 1, 0, 0, 1, -449,-15) ">
	<g>
		<g id="Layer0_0_MEMBER_32_FILL">
			<path class="st9" d="M709,232c0-3.87-1.87-5.87-5.6-6h-38.75c-3.77,0.13-5.65,2.13-5.65,6v49c0,1.7,0.37,3.03,1.1,4
				c0.9,1.27,2.42,1.93,4.55,2h38.75c2.1-0.07,3.62-0.73,4.55-2c0.7-0.97,1.05-2.3,1.05-4V232z"/>
			<path class="st10" d="M705.4,226h-2c3.73,0.13,5.6,2.13,5.6,6v49c0,1.7-0.35,3.03-1.05,4c-0.93,1.27-2.45,1.93-4.55,2h2
				c2.1-0.07,3.62-0.73,4.55-2c0.7-0.97,1.05-2.3,1.05-4v-49C711,228.13,709.13,226.13,705.4,226z"/>
			<path class="st11" d="M733,232c0-2.7-0.92-4.48-2.75-5.35c-0.87-0.43-1.95-0.65-3.25-0.65h-21.6c3.73,0.13,5.6,2.13,5.6,6v49
				c0,1.7-0.35,3.03-1.05,4c-0.93,1.27-2.45,1.93-4.55,2H727c4,0,6-2,6-6V232z"/>
		</g>
	</g>
</g>
<g transform="matrix( 1, 0, 0, 1, -449,-15) ">
	<g>
		<g id="Layer0_0_MEMBER_32_MEMBER_0_FILL">
			<path class="st5" d="M724,270.45c0-0.93-0.25-1.75-0.75-2.45c-0.5-0.67-1.08-1-1.75-1c-0.7,0-1.3,0.33-1.8,1
				c-0.47,0.7-0.7,1.52-0.7,2.45v0.1c0,0.93,0.23,1.75,0.7,2.45c0.5,0.67,1.1,1,1.8,1c0.67,0,1.25-0.33,1.75-1
				c0.5-0.7,0.75-1.52,0.75-2.45V270.45 M721.5,240c-0.7,0-1.3,0.33-1.8,1c-0.47,0.7-0.7,1.52-0.7,2.45v0.1
				c0,0.93,0.23,1.75,0.7,2.45c0.5,0.67,1.1,1,1.8,1c0.67,0,1.25-0.33,1.75-1c0.5-0.7,0.75-1.52,0.75-2.45v-0.1
				c0-0.93-0.25-1.75-0.75-2.45C722.75,240.33,722.17,240,721.5,240z"/>
		</g>
	</g>
</g>
<g transform="matrix( 1, 0, 0, 1, -449,-15) ">
	<g>
		<g id="Layer0_0_MEMBER_33_FILL">
			<path class="st14" d="M833,242c0-4-2-6-6-6h-21.6c3.73,0.13,5.6,2.13,5.6,6v29c0,3.87-1.87,5.87-5.6,6H827c4,0,6-2,6-6V242z"/>
			<path class="st12" d="M809,242c0-3.87-1.87-5.87-5.6-6h-38.75c-3.77,0.13-5.65,2.13-5.65,6v29c0,3.87,1.88,5.87,5.65,6h38.75
				c3.73-0.13,5.6-2.13,5.6-6V242z"/>
			<path class="st13" d="M805.4,236h-2c3.73,0.13,5.6,2.13,5.6,6v29c0,3.87-1.87,5.87-5.6,6h2c3.73-0.13,5.6-2.13,5.6-6v-29
				C811,238.13,809.13,236.13,805.4,236z"/>
		</g>
	</g>
</g>
<g transform="matrix( 1, 0, 0, 1, -449,-15) ">
	<g>
		<g id="Layer0_0_MEMBER_33_MEMBER_0_FILL">
			<path class="st5" d="M819.7,262c-0.47,0.7-0.7,1.52-0.7,2.45v0.1c0,0.93,0.23,1.75,0.7,2.45c0.5,0.67,1.1,1,1.8,1
				c0.67,0,1.25-0.33,1.75-1c0.5-0.7,0.75-1.52,0.75-2.45v-0.1c0-0.93-0.25-1.75-0.75-2.45c-0.5-0.67-1.08-1-1.75-1
				C820.8,261,820.2,261.33,819.7,262 M821.5,246c-0.7,0-1.3,0.33-1.8,1c-0.47,0.7-0.7,1.52-0.7,2.45v0.1c0,0.93,0.23,1.75,0.7,2.45
				c0.5,0.67,1.1,1,1.8,1c0.67,0,1.25-0.33,1.75-1c0.5-0.7,0.75-1.52,0.75-2.45v-0.1c0-0.93-0.25-1.75-0.75-2.45
				C822.75,246.33,822.17,246,821.5,246z"/>
		</g>
	</g>
</g>
</svg>
