<?xml version="1.0" encoding="utf-8"?>
<!-- Generator: Adobe Illustrator 28.0.0, SVG Export Plug-In . SVG Version: 6.00 Build 0)  -->
<svg version="1.1" id="Layer_1" xmlns="http://www.w3.org/2000/svg" xmlns:xlink="http://www.w3.org/1999/xlink" x="0px" y="0px"
	 viewBox="0 0 1366 768" style="enable-background:new 0 0 1366 768;" xml:space="preserve">
<style type="text/css">
	.st0{fill:#869595;}
	.st1{fill:#E86A17;}
	.st2{fill:#B3C8C9;}
	.st3{fill:#444C4D;}
	.st4{fill:#3A4041;}
	.st5{fill:#A5B8B8;}
	.st6{fill:#505A5B;}
</style>
<g transform="matrix( 1, 0, 0, 1, 0,0) ">
	<g>
		<g id="Layer0_9_FILL">
			<path class="st0" d="M650.81,272.87c-1.83,1.53-2.8,3.93-2.9,7.2v49.9c0,0.2,0.02,0.38,0.05,0.55c0.17,2.13,0.73,3.87,1.7,5.2
				c0,0.03,0.02,0.05,0.05,0.05c0.33,0.43,0.72,0.83,1.15,1.2c1.5,1.2,3.57,1.83,6.2,1.9h51.75c2.6-0.07,4.65-0.7,6.15-1.9
				c0.43-0.4,0.83-0.82,1.2-1.25c0.03,0,0.05-0.02,0.05-0.05c0.97-1.37,1.53-3.1,1.7-5.2v-0.5c0-0.1,0-0.18,0-0.25v-49.65
				c-0.1-3.27-1.05-5.67-2.85-7.2c-1.5-1.23-3.58-1.9-6.25-2h-51.8C654.34,270.97,652.27,271.63,650.81,272.87 M652.91,282.22v-2
				c0.03-1.57,0.4-2.73,1.1-3.5h0.05c0.73-0.53,1.78-0.82,3.15-0.85h41.45c1.3,0.03,2.35,0.3,3.15,0.8c0.7,0.8,1.07,1.98,1.1,3.55v2
				v17.8v17.7c0,0.07,0,0.15,0,0.25v0.35v1.4c0,0.07,0,0.15,0,0.25v0.35c-0.1,0.9-0.32,1.67-0.65,2.3c-0.17,0.17-0.33,0.35-0.5,0.55
				c-0.77,0.43-1.75,0.67-2.95,0.7h-41.6c-1.33-0.03-2.38-0.28-3.15-0.75c-0.13-0.13-0.25-0.27-0.35-0.4
				c-0.03-0.03-0.07-0.05-0.1-0.05c-0.37-0.7-0.58-1.55-0.65-2.55c-0.03-0.07-0.05-0.13-0.05-0.2v-2v-17.9V282.22 M707.81,286.72
				c0.6-0.57,1.32-0.85,2.15-0.85c0.83,0,1.53,0.28,2.1,0.85c0.6,0.6,0.9,1.32,0.9,2.15c0,0.83-0.3,1.53-0.9,2.1
				c-0.57,0.6-1.27,0.9-2.1,0.9c-0.83,0-1.55-0.3-2.15-0.9c-0.57-0.57-0.85-1.27-0.85-2.1
				C706.96,288.03,707.24,287.32,707.81,286.72 M707.81,296.72c0.6-0.57,1.32-0.85,2.15-0.85c0.83,0,1.53,0.28,2.1,0.85
				c0.6,0.6,0.9,1.32,0.9,2.15c0,0.83-0.3,1.53-0.9,2.1c-0.57,0.6-1.27,0.9-2.1,0.9c-0.83,0-1.55-0.3-2.15-0.9
				c-0.57-0.57-0.85-1.27-0.85-2.1C706.96,298.03,707.24,297.32,707.81,296.72 M654.91,333.87v-4h9.95v4H654.91z"/>
			<path class="st1" d="M654.91,329.87v4h9.95v-4H654.91z"/>
			<path class="st2" d="M709.96,295.87c-0.83,0-1.55,0.28-2.15,0.85c-0.57,0.6-0.85,1.32-0.85,2.15c0,0.83,0.28,1.53,0.85,2.1
				c0.6,0.6,1.32,0.9,2.15,0.9c0.83,0,1.53-0.3,2.1-0.9c0.6-0.57,0.9-1.27,0.9-2.1c0-0.83-0.3-1.55-0.9-2.15
				C711.49,296.15,710.79,295.87,709.96,295.87 M709.96,285.87c-0.83,0-1.55,0.28-2.15,0.85c-0.57,0.6-0.85,1.32-0.85,2.15
				c0,0.83,0.28,1.53,0.85,2.1c0.6,0.6,1.32,0.9,2.15,0.9c0.83,0,1.53-0.3,2.1-0.9c0.6-0.57,0.9-1.27,0.9-2.1
				c0-0.83-0.3-1.55-0.9-2.15C711.49,286.15,710.79,285.87,709.96,285.87z"/>
			<path class="st3" d="M702.91,319.72v-1.4c-0.1,0.9-0.32,1.67-0.65,2.3c-0.17,0.17-0.33,0.35-0.5,0.55
				c-0.77,0.43-1.75,0.67-2.95,0.7h-41.6c-1.33-0.03-2.38-0.28-3.15-0.75c-0.13-0.13-0.25-0.27-0.35-0.4
				c-0.03-0.03-0.07-0.05-0.1-0.05c-0.37-0.7-0.58-1.55-0.65-2.55c-0.03-0.06-0.05-0.13-0.05-0.2v2c0,0.07,0.02,0.13,0.05,0.2
				c0.07,1,0.28,1.85,0.65,2.55c0.03,0,0.07,0.02,0.1,0.05c0.1,0.13,0.22,0.27,0.35,0.4c0.77,0.47,1.82,0.72,3.15,0.75h41.6
				c1.2-0.03,2.18-0.27,2.95-0.7c0.17-0.2,0.33-0.38,0.5-0.55c0.33-0.63,0.55-1.4,0.65-2.3v-0.35
				C702.91,319.87,702.91,319.78,702.91,319.72 M654.01,278.72c-0.7,0.77-1.07,1.93-1.1,3.5v17.8h50v-17.8
				c-0.03-1.57-0.4-2.75-1.1-3.55c-0.8-0.5-1.85-0.77-3.15-0.8h-41.45c-1.37,0.03-2.42,0.32-3.15,0.85H654.01z"/>
			<path class="st4" d="M702.91,317.97c0-0.1,0-0.18,0-0.25v-17.7h-50v17.9c0,0.07,0.02,0.14,0.05,0.2c0.07,1,0.28,1.85,0.65,2.55
				c0.03,0,0.07,0.02,0.1,0.05c0.1,0.13,0.22,0.27,0.35,0.4c0.77,0.47,1.82,0.72,3.15,0.75h41.6c1.2-0.03,2.18-0.27,2.95-0.7
				c0.17-0.2,0.33-0.38,0.5-0.55c0.33-0.63,0.55-1.4,0.65-2.3V317.97 M652.91,280.22v2c0.03-1.57,0.4-2.73,1.1-3.5h0.05
				c0.73-0.53,1.78-0.82,3.15-0.85h41.45c1.3,0.03,2.35,0.3,3.15,0.8c0.7,0.8,1.07,1.98,1.1,3.55v-2c-0.03-1.57-0.4-2.75-1.1-3.55
				c-0.8-0.5-1.85-0.77-3.15-0.8h-41.45c-1.37,0.03-2.42,0.32-3.15,0.85h-0.05C653.31,277.48,652.94,278.65,652.91,280.22z"/>
			<path class="st5" d="M657.01,268.87c-2.67,0.1-4.73,0.77-6.2,2c-1.83,1.53-2.8,3.93-2.9,7.2v2c0.1-3.27,1.07-5.67,2.9-7.2
				c1.47-1.23,3.53-1.9,6.2-2h51.8c2.67,0.1,4.75,0.77,6.25,2c1.8,1.53,2.75,3.93,2.85,7.2v-2c-0.1-3.27-1.05-5.67-2.85-7.2
				c-1.5-1.23-3.58-1.9-6.25-2H657.01z"/>
		</g>
	</g>
</g>
<g transform="matrix( 1, 0, 0, 1, 0,0) ">
	<g>
		<g id="Layer0_10_FILL">
			<path class="st0" d="M570.81,272.87c-1.83,1.53-2.8,3.93-2.9,7.2v49.9c0,0.2,0.02,0.38,0.05,0.55c0.17,2.13,0.73,3.87,1.7,5.2
				c0,0.03,0.02,0.05,0.05,0.05c0.33,0.43,0.72,0.83,1.15,1.2c1.5,1.2,3.57,1.83,6.2,1.9h51.75c2.6-0.07,4.65-0.7,6.15-1.9
				c0.43-0.4,0.83-0.82,1.2-1.25c0.03,0,0.05-0.02,0.05-0.05c0.97-1.37,1.53-3.1,1.7-5.2v-0.5c0-0.1,0-0.18,0-0.25v-49.65
				c-0.1-3.27-1.05-5.67-2.85-7.2c-1.5-1.23-3.58-1.9-6.25-2h-51.8C574.34,270.97,572.27,271.63,570.81,272.87 M574.06,276.72
				c0.73-0.53,1.78-0.82,3.15-0.85h51.45c1.3,0.03,2.35,0.3,3.15,0.8c0.7,0.8,1.07,1.98,1.1,3.55v2v22.8v22.7c0,0.07,0,0.15,0,0.25
				v0.35v1.4c0,0.07,0,0.15,0,0.25v0.35c-0.1,0.9-0.32,1.67-0.65,2.3c-0.17,0.17-0.33,0.35-0.5,0.55c-0.77,0.43-1.75,0.67-2.95,0.7
				h-51.6c-1.33-0.03-2.38-0.28-3.15-0.75c-0.13-0.13-0.25-0.27-0.35-0.4c-0.03-0.03-0.07-0.05-0.1-0.05
				c-0.37-0.7-0.58-1.55-0.65-2.55c-0.03-0.07-0.05-0.15-0.05-0.25v-1.95v-22.9v-22.8v-2c0.03-1.57,0.4-2.73,1.1-3.5H574.06z"/>
			<path class="st4" d="M632.26,330.62c0.33-0.63,0.55-1.4,0.65-2.3v-0.35c0-0.1,0-0.18,0-0.25v-22.7h-60v22.9
				c0,0.07,0.02,0.14,0.05,0.2c0.07,1,0.28,1.85,0.65,2.55c0.03,0,0.07,0.02,0.1,0.05c0.1,0.13,0.22,0.27,0.35,0.4
				c0.77,0.47,1.82,0.72,3.15,0.75h51.6c1.2-0.03,2.18-0.27,2.95-0.7C631.92,330.97,632.09,330.78,632.26,330.62 M574.06,278.72
				c0.73-0.53,1.78-0.82,3.15-0.85h51.45c1.3,0.03,2.35,0.3,3.15,0.8c0.7,0.8,1.07,1.98,1.1,3.55v-2c-0.03-1.57-0.4-2.75-1.1-3.55
				c-0.8-0.5-1.85-0.77-3.15-0.8h-51.45c-1.37,0.03-2.42,0.32-3.15,0.85h-0.05c-0.7,0.77-1.07,1.93-1.1,3.5v2
				c0.03-1.57,0.4-2.73,1.1-3.5H574.06z"/>
			<path class="st3" d="M632.91,328.32c-0.1,0.9-0.32,1.67-0.65,2.3c-0.17,0.17-0.33,0.35-0.5,0.55c-0.77,0.43-1.75,0.67-2.95,0.7
				h-51.6c-1.33-0.03-2.38-0.28-3.15-0.75c-0.13-0.13-0.25-0.27-0.35-0.4c-0.03-0.03-0.07-0.05-0.1-0.05
				c-0.37-0.7-0.58-1.55-0.65-2.55c-0.03-0.06-0.05-0.13-0.05-0.2v1.95c0,0.1,0.02,0.18,0.05,0.25c0.07,1,0.28,1.85,0.65,2.55
				c0.03,0,0.07,0.02,0.1,0.05c0.1,0.13,0.22,0.27,0.35,0.4c0.77,0.47,1.82,0.72,3.15,0.75h51.6c1.2-0.03,2.18-0.27,2.95-0.7
				c0.17-0.2,0.33-0.38,0.5-0.55c0.33-0.63,0.55-1.4,0.65-2.3v-0.35c0-0.1,0-0.18,0-0.25V328.32 M577.21,277.87
				c-1.37,0.03-2.42,0.32-3.15,0.85h-0.05c-0.7,0.77-1.07,1.93-1.1,3.5v22.8h60v-22.8c-0.03-1.57-0.4-2.75-1.1-3.55
				c-0.8-0.5-1.85-0.77-3.15-0.8H577.21z"/>
			<path class="st5" d="M577.01,268.87c-2.67,0.1-4.73,0.77-6.2,2c-1.83,1.53-2.8,3.93-2.9,7.2v2c0.1-3.27,1.07-5.67,2.9-7.2
				c1.47-1.23,3.53-1.9,6.2-2h51.8c2.67,0.1,4.75,0.77,6.25,2c1.8,1.53,2.75,3.93,2.85,7.2v-2c-0.1-3.27-1.05-5.67-2.85-7.2
				c-1.5-1.23-3.58-1.9-6.25-2H577.01z"/>
		</g>
	</g>
</g>
<g transform="matrix( 1, 0, 0, 1, 0,0) ">
	<g>
		<g id="Layer0_11_FILL">
			<path class="st0" d="M657.01,350.87c-2.67,0.1-4.73,0.77-6.2,2c-1.83,1.53-2.8,3.93-2.9,7.2v49.9c0,0.2,0.02,0.38,0.05,0.55
				c0.17,2.13,0.73,3.87,1.7,5.2c0,0.03,0.02,0.05,0.05,0.05c0.33,0.43,0.72,0.83,1.15,1.2c1.5,1.2,3.57,1.83,6.2,1.9h51.75
				c2.6-0.07,4.65-0.7,6.15-1.9c0.43-0.4,0.83-0.82,1.2-1.25c0.03,0,0.05-0.02,0.05-0.05c0.97-1.37,1.53-3.1,1.7-5.2v-0.5
				c0-0.1,0-0.18,0-0.25v-49.65c-0.1-3.27-1.05-5.67-2.85-7.2c-1.5-1.23-3.58-1.9-6.25-2H657.01 M654.06,356.72
				c0.73-0.53,1.78-0.82,3.15-0.85h41.45c1.3,0.03,2.35,0.3,3.15,0.8c0.7,0.8,1.07,1.98,1.1,3.55v2v17.8v17.7c0,0.07,0,0.15,0,0.25
				v0.35v1.4c0,0.07,0,0.15,0,0.25v0.35c-0.1,0.9-0.32,1.67-0.65,2.3c-0.17,0.17-0.33,0.35-0.5,0.55c-0.77,0.43-1.75,0.67-2.95,0.7
				h-41.6c-1.33-0.03-2.38-0.28-3.15-0.75c-0.13-0.13-0.25-0.27-0.35-0.4c-0.03-0.03-0.07-0.05-0.1-0.05
				c-0.37-0.7-0.58-1.55-0.65-2.55c-0.03-0.07-0.05-0.13-0.05-0.2v-2v-17.9v-17.8v-2c0.03-1.57,0.4-2.73,1.1-3.5H654.06
				 M707.81,370.97c-0.57-0.57-0.85-1.27-0.85-2.1s0.28-1.55,0.85-2.15c0.6-0.57,1.32-0.85,2.15-0.85c0.83,0,1.53,0.28,2.1,0.85
				c0.6,0.6,0.9,1.32,0.9,2.15s-0.3,1.53-0.9,2.1c-0.57,0.6-1.27,0.9-2.1,0.9C709.12,371.87,708.41,371.57,707.81,370.97
				 M706.96,378.87c0-0.83,0.28-1.55,0.85-2.15c0.6-0.57,1.32-0.85,2.15-0.85c0.83,0,1.53,0.28,2.1,0.85c0.6,0.6,0.9,1.32,0.9,2.15
				s-0.3,1.53-0.9,2.1c-0.57,0.6-1.27,0.9-2.1,0.9c-0.83,0-1.55-0.3-2.15-0.9C707.24,380.4,706.96,379.7,706.96,378.87
				 M664.86,409.87v4h-9.95v-4H664.86z"/>
			<path class="st1" d="M664.86,413.87v-4h-9.95v4H664.86z"/>
			<path class="st2" d="M707.81,376.72c-0.57,0.6-0.85,1.32-0.85,2.15s0.28,1.53,0.85,2.1c0.6,0.6,1.32,0.9,2.15,0.9
				c0.83,0,1.53-0.3,2.1-0.9c0.6-0.57,0.9-1.27,0.9-2.1s-0.3-1.55-0.9-2.15c-0.57-0.57-1.27-0.85-2.1-0.85
				C709.12,375.87,708.41,376.15,707.81,376.72 M706.96,368.87c0,0.83,0.28,1.53,0.85,2.1c0.6,0.6,1.32,0.9,2.15,0.9
				c0.83,0,1.53-0.3,2.1-0.9c0.6-0.57,0.9-1.27,0.9-2.1s-0.3-1.55-0.9-2.15c-0.57-0.57-1.27-0.85-2.1-0.85
				c-0.83,0-1.55,0.28-2.15,0.85C707.24,367.32,706.96,368.03,706.96,368.87z"/>
			<path class="st3" d="M702.91,398.32c-0.1,0.9-0.32,1.67-0.65,2.3c-0.17,0.17-0.33,0.35-0.5,0.55c-0.77,0.43-1.75,0.67-2.95,0.7
				h-41.6c-1.33-0.03-2.38-0.28-3.15-0.75c-0.13-0.13-0.25-0.27-0.35-0.4c-0.03-0.03-0.07-0.05-0.1-0.05
				c-0.37-0.7-0.58-1.55-0.65-2.55c-0.03-0.06-0.05-0.13-0.05-0.2v2c0,0.07,0.02,0.13,0.05,0.2c0.07,1,0.28,1.85,0.65,2.55
				c0.03,0,0.07,0.02,0.1,0.05c0.1,0.13,0.22,0.27,0.35,0.4c0.77,0.47,1.82,0.72,3.15,0.75h41.6c1.2-0.03,2.18-0.27,2.95-0.7
				c0.17-0.2,0.33-0.38,0.5-0.55c0.33-0.63,0.55-1.4,0.65-2.3v-0.35c0-0.1,0-0.18,0-0.25V398.32 M657.21,357.87
				c-1.37,0.03-2.42,0.32-3.15,0.85h-0.05c-0.7,0.77-1.07,1.93-1.1,3.5v17.8h50v-17.8c-0.03-1.57-0.4-2.75-1.1-3.55
				c-0.8-0.5-1.85-0.77-3.15-0.8H657.21 M666.96,368.87v-6h12v6H666.96 M662.96,362.87v6h-4v-6H662.96 M658.96,377.87v-6h12v6
				H658.96 M674.96,377.87v-6h12v6H674.96 M694.96,368.87h-12v-6h12V368.87 M690.96,371.87h4v6h-4V371.87z"/>
			<path class="st4" d="M702.91,380.02h-50v17.9c0,0.07,0.02,0.14,0.05,0.2c0.07,1,0.28,1.85,0.65,2.55c0.03,0,0.07,0.02,0.1,0.05
				c0.1,0.13,0.22,0.27,0.35,0.4c0.77,0.47,1.82,0.72,3.15,0.75h41.6c1.2-0.03,2.18-0.27,2.95-0.7c0.17-0.2,0.33-0.38,0.5-0.55
				c0.33-0.63,0.55-1.4,0.65-2.3v-0.35c0-0.1,0-0.18,0-0.25V380.02 M658.96,386.87v-6h4v6H658.96 M666.96,386.87v-6h28v6H666.96
				 M654.06,358.72c0.73-0.53,1.78-0.82,3.15-0.85h41.45c1.3,0.03,2.35,0.3,3.15,0.8c0.7,0.8,1.07,1.98,1.1,3.55v-2
				c-0.03-1.57-0.4-2.75-1.1-3.55c-0.8-0.5-1.85-0.77-3.15-0.8h-41.45c-1.37,0.03-2.42,0.32-3.15,0.85h-0.05
				c-0.7,0.77-1.07,1.93-1.1,3.5v2c0.03-1.57,0.4-2.73,1.1-3.5H654.06z"/>
			<path class="st6" d="M666.96,380.87v6h28v-6H666.96 M658.96,380.87v6h4v-6H658.96 M694.96,371.87h-4v6h4V371.87 M682.96,368.87
				h12v-6h-12V368.87 M674.96,371.87v6h12v-6H674.96 M658.96,371.87v6h12v-6H658.96 M662.96,368.87v-6h-4v6H662.96 M666.96,362.87v6
				h12v-6H666.96z"/>
			<path class="st5" d="M650.81,350.87c-1.83,1.53-2.8,3.93-2.9,7.2v2c0.1-3.27,1.07-5.67,2.9-7.2c1.47-1.23,3.53-1.9,6.2-2h51.8
				c2.67,0.1,4.75,0.77,6.25,2c1.8,1.53,2.75,3.93,2.85,7.2v-2c-0.1-3.27-1.05-5.67-2.85-7.2c-1.5-1.23-3.58-1.9-6.25-2h-51.8
				C654.34,348.97,652.27,349.63,650.81,350.87z"/>
		</g>
	</g>
</g>
<g transform="matrix( 1, 0, 0, 1, 0,0) ">
	<g>
		<g id="Layer0_12_FILL">
			<path class="st0" d="M577.01,350.87c-2.67,0.1-4.73,0.77-6.2,2c-1.83,1.53-2.8,3.93-2.9,7.2v49.9c0,0.2,0.02,0.38,0.05,0.55
				c0.17,2.13,0.73,3.87,1.7,5.2c0,0.03,0.02,0.05,0.05,0.05c0.33,0.43,0.72,0.83,1.15,1.2c1.5,1.2,3.57,1.83,6.2,1.9h51.75
				c2.6-0.07,4.65-0.7,6.15-1.9c0.43-0.4,0.83-0.82,1.2-1.25c0.03,0,0.05-0.02,0.05-0.05c0.97-1.37,1.53-3.1,1.7-5.2v-0.5
				c0-0.1,0-0.18,0-0.25v-49.65c-0.1-3.27-1.05-5.67-2.85-7.2c-1.5-1.23-3.58-1.9-6.25-2H577.01 M574.06,356.72
				c0.73-0.53,1.78-0.82,3.15-0.85h51.45c1.3,0.03,2.35,0.3,3.15,0.8c0.7,0.8,1.07,1.98,1.1,3.55v2v22.8v22.7c0,0.07,0,0.15,0,0.25
				v0.35v1.4c0,0.07,0,0.15,0,0.25v0.35c-0.1,0.9-0.32,1.67-0.65,2.3c-0.17,0.17-0.33,0.35-0.5,0.55c-0.77,0.43-1.75,0.67-2.95,0.7
				h-51.6c-1.33-0.03-2.38-0.28-3.15-0.75c-0.13-0.13-0.25-0.27-0.35-0.4c-0.03-0.03-0.07-0.05-0.1-0.05
				c-0.37-0.7-0.58-1.55-0.65-2.55c-0.03-0.07-0.05-0.15-0.05-0.25v-1.95v-22.9v-22.8v-2c0.03-1.57,0.4-2.73,1.1-3.5H574.06z"/>
			<path class="st3" d="M632.26,410.62c-0.17,0.17-0.33,0.35-0.5,0.55c-0.77,0.43-1.75,0.67-2.95,0.7h-51.6
				c-1.33-0.03-2.38-0.28-3.15-0.75c-0.13-0.13-0.25-0.27-0.35-0.4c-0.03-0.03-0.07-0.05-0.1-0.05c-0.37-0.7-0.58-1.55-0.65-2.55
				c-0.03-0.06-0.05-0.13-0.05-0.2v1.95c0,0.1,0.02,0.18,0.05,0.25c0.07,1,0.28,1.85,0.65,2.55c0.03,0,0.07,0.02,0.1,0.05
				c0.1,0.13,0.22,0.27,0.35,0.4c0.77,0.47,1.82,0.72,3.15,0.75h51.6c1.2-0.03,2.18-0.27,2.95-0.7c0.17-0.2,0.33-0.38,0.5-0.55
				c0.33-0.63,0.55-1.4,0.65-2.3v-0.35c0-0.1,0-0.18,0-0.25v-1.4C632.81,409.22,632.59,409.98,632.26,410.62 M577.21,357.87
				c-1.37,0.03-2.42,0.32-3.15,0.85h-0.05c-0.7,0.77-1.07,1.93-1.1,3.5v22.8h6.05v-4.15h4v4.15h4v-4.15h28v4.15h4v-4.15h8v4.15h5.95
				v-22.8c-0.03-1.57-0.4-2.75-1.1-3.55c-0.8-0.5-1.85-0.77-3.15-0.8H577.21 M598.96,368.87h-12v-6h12V368.87 M582.96,362.87v6h-4
				v-6H582.96 M578.96,377.87v-6h12v6H578.96 M594.96,377.87v-6h12v6H594.96 M626.96,362.87v6h-8v-6H626.96 M614.96,368.87h-12v-6
				h12V368.87 M618.96,377.87v-6h8v6H618.96 M610.96,371.87h4v6h-4V371.87z"/>
			<path class="st6" d="M618.96,385.02v1.85h8v-1.85v-4.15h-8V385.02 M586.96,385.02v1.85h28v-1.85v-4.15h-28V385.02 M578.96,385.02
				v1.85h4v-1.85v-4.15h-4V385.02 M614.96,371.87h-4v6h4V371.87 M618.96,371.87v6h8v-6H618.96 M602.96,368.87h12v-6h-12V368.87
				 M626.96,368.87v-6h-8v6H626.96 M594.96,371.87v6h12v-6H594.96 M578.96,371.87v6h12v-6H578.96 M582.96,368.87v-6h-4v6H582.96
				 M586.96,368.87h12v-6h-12V368.87z"/>
			<path class="st4" d="M578.96,386.87v-1.85h-6.05v22.9c0,0.07,0.02,0.14,0.05,0.2c0.07,1,0.28,1.85,0.65,2.55
				c0.03,0,0.07,0.02,0.1,0.05c0.1,0.13,0.22,0.27,0.35,0.4c0.77,0.47,1.82,0.72,3.15,0.75h51.6c1.2-0.03,2.18-0.27,2.95-0.7
				c0.17-0.2,0.33-0.38,0.5-0.55c0.33-0.63,0.55-1.4,0.65-2.3v-0.35c0-0.1,0-0.18,0-0.25v-22.7h-5.95v1.85h-8v-1.85h-4v1.85h-28
				v-1.85h-4v1.85H578.96 M574.06,358.72c0.73-0.53,1.78-0.82,3.15-0.85h51.45c1.3,0.03,2.35,0.3,3.15,0.8
				c0.7,0.8,1.07,1.98,1.1,3.55v-2c-0.03-1.57-0.4-2.75-1.1-3.55c-0.8-0.5-1.85-0.77-3.15-0.8h-51.45
				c-1.37,0.03-2.42,0.32-3.15,0.85h-0.05c-0.7,0.77-1.07,1.93-1.1,3.5v2c0.03-1.57,0.4-2.73,1.1-3.5H574.06z"/>
			<path class="st5" d="M577.01,348.87c-2.67,0.1-4.73,0.77-6.2,2c-1.83,1.53-2.8,3.93-2.9,7.2v2c0.1-3.27,1.07-5.67,2.9-7.2
				c1.47-1.23,3.53-1.9,6.2-2h51.8c2.67,0.1,4.75,0.77,6.25,2c1.8,1.53,2.75,3.93,2.85,7.2v-2c-0.1-3.27-1.05-5.67-2.85-7.2
				c-1.5-1.23-3.58-1.9-6.25-2H577.01z"/>
		</g>
	</g>
</g>
<g transform="matrix( 1, 0, 0, 1, 0,0) ">
	<g>
		<g id="Layer0_13_FILL">
			<path class="st0" d="M717.91,493.87h-70v5h70V493.87 M717.91,435.87v-5h-70v5H717.91z"/>
			<path class="st3" d="M647.91,465.02h70v-27.15h-70V465.02 M647.91,491.87v2h70v-2H647.91z"/>
			<path class="st4" d="M647.91,465.02v26.85h70v-26.85H647.91 M717.91,437.87v-2h-70v2H717.91z"/>
			<path class="st5" d="M717.91,430.87v-2h-70v2H717.91z"/>
		</g>
	</g>
</g>
<g transform="matrix( 1, 0, 0, 1, 0,0) ">
	<g>
		<g id="Layer0_14_FILL">
			<path class="st3" d="M727.96,491.87v2h60.9c1.2-0.03,2.18-0.27,2.95-0.7c0.17-0.2,0.33-0.38,0.5-0.55
				c0.33-0.63,0.55-1.4,0.65-2.3v-0.35c0-0.1,0-0.18,0-0.25v-1.4c-0.1,0.9-0.32,1.67-0.65,2.3c-0.17,0.17-0.33,0.35-0.5,0.55
				c-0.77,0.43-1.75,0.67-2.95,0.7H727.96 M791.86,438.67c-0.8-0.5-1.85-0.77-3.15-0.8h-60.75v27.15h65v-22.8
				C792.92,440.65,792.56,439.47,791.86,438.67z"/>
			<path class="st4" d="M727.96,465.02v26.85h60.9c1.2-0.03,2.18-0.27,2.95-0.7c0.17-0.2,0.33-0.38,0.5-0.55
				c0.33-0.63,0.55-1.4,0.65-2.3v-0.35c0-0.1,0-0.18,0-0.25v-22.7H727.96 M791.86,436.67c-0.8-0.5-1.85-0.77-3.15-0.8h-60.75v2
				h60.75c1.3,0.03,2.35,0.3,3.15,0.8c0.7,0.8,1.07,1.98,1.1,3.55v-2C792.92,438.65,792.56,437.47,791.86,436.67z"/>
			<path class="st5" d="M797.96,440.07v-2c-0.1-3.27-1.05-5.67-2.85-7.2c-1.5-1.23-3.58-1.9-6.25-2h-60.9v2h60.9
				c2.67,0.1,4.75,0.77,6.25,2C796.91,434.4,797.86,436.8,797.96,440.07z"/>
			<path class="st0" d="M788.71,435.87c1.3,0.03,2.35,0.3,3.15,0.8c0.7,0.8,1.07,1.98,1.1,3.55v2v22.8v22.7c0,0.07,0,0.15,0,0.25
				v0.35v1.4c0,0.07,0,0.15,0,0.25v0.35c-0.1,0.9-0.32,1.67-0.65,2.3c-0.17,0.17-0.33,0.35-0.5,0.55c-0.77,0.43-1.75,0.67-2.95,0.7
				h-60.9v5h60.9c2.6-0.07,4.65-0.7,6.15-1.9c0.43-0.4,0.83-0.82,1.2-1.25c0.03,0,0.05-0.02,0.05-0.05c0.97-1.37,1.53-3.1,1.7-5.2
				v-0.5c0-0.1,0-0.18,0-0.25v-49.65c-0.1-3.27-1.05-5.67-2.85-7.2c-1.5-1.23-3.58-1.9-6.25-2h-60.9v5H788.71z"/>
		</g>
	</g>
</g>
<g transform="matrix( 1, 0, 0, 1, 0,0) ">
	<g>
		<g id="Layer0_15_FILL">
			<path class="st3" d="M574.06,491.17c-0.17-0.2-0.33-0.38-0.5-0.55c-0.33-0.63-0.55-1.4-0.65-2.3v1.4c0,0.07,0,0.15,0,0.25v0.35
				c0.1,0.9,0.32,1.67,0.65,2.3c0.17,0.17,0.33,0.35,0.5,0.55c0.77,0.43,1.75,0.67,2.95,0.7h60.9v-2h-60.9
				C575.81,491.83,574.82,491.6,574.06,491.17 M577.16,437.87c-1.3,0.03-2.35,0.3-3.15,0.8c-0.7,0.8-1.07,1.98-1.1,3.55v22.8h65
				v-27.15H577.16z"/>
			<path class="st4" d="M572.91,487.72c0,0.07,0,0.15,0,0.25v0.35c0.1,0.9,0.32,1.67,0.65,2.3c0.17,0.17,0.33,0.35,0.5,0.55
				c0.77,0.43,1.75,0.67,2.95,0.7h60.9v-26.85h-65V487.72 M637.91,437.87v-2h-60.75c-1.3,0.03-2.35,0.3-3.15,0.8
				c-0.7,0.8-1.07,1.98-1.1,3.55v2c0.03-1.57,0.4-2.75,1.1-3.55c0.8-0.5,1.85-0.77,3.15-0.8H637.91z"/>
			<path class="st5" d="M637.91,430.87v-2h-60.9c-2.67,0.1-4.75,0.77-6.25,2c-1.8,1.53-2.75,3.93-2.85,7.2v2
				c0.1-3.27,1.05-5.67,2.85-7.2c1.5-1.23,3.58-1.9,6.25-2H637.91z"/>
			<path class="st0" d="M637.91,435.87v-5h-60.9c-2.67,0.1-4.75,0.77-6.25,2c-1.8,1.53-2.75,3.93-2.85,7.2v49.65
				c0,0.07,0,0.15,0,0.25v0.5c0.17,2.1,0.73,3.83,1.7,5.2c0,0.03,0.02,0.05,0.05,0.05c0.37,0.43,0.77,0.85,1.2,1.25
				c1.5,1.2,3.55,1.83,6.15,1.9h60.9v-5h-60.9c-1.2-0.03-2.18-0.27-2.95-0.7c-0.17-0.2-0.33-0.38-0.5-0.55
				c-0.33-0.63-0.55-1.4-0.65-2.3v-0.35c0-0.1,0-0.18,0-0.25v-1.4v-0.35c0-0.1,0-0.18,0-0.25v-22.7v-22.8v-2
				c0.03-1.57,0.4-2.75,1.1-3.55c0.8-0.5,1.85-0.77,3.15-0.8H637.91z"/>
		</g>
	</g>
</g>
<g transform="matrix( 1, 0, 0, 1, 0,0) ">
	<g>
		<g id="Layer0_16_FILL">
			<path class="st3" d="M717.91,517.87h-70v27.15h70V517.87 M647.91,571.87v2h70v-2H647.91z"/>
			<path class="st0" d="M647.91,573.87v5h70v-5H647.91 M717.91,515.87v-5h-70v5H717.91z"/>
			<path class="st4" d="M647.91,545.02v26.85h70v-26.85H647.91 M717.91,517.87v-2h-70v2H717.91z"/>
			<path class="st5" d="M717.91,510.87v-2h-70v2H717.91z"/>
		</g>
	</g>
</g>
<g transform="matrix( 1, 0, 0, 1, 0,0) ">
	<g>
		<g id="Layer0_16_MEMBER_0_FILL">
			<path class="st6" d="M665.96,558.87v6h28v-6H665.96 M661.96,564.87v-6h-4v6H661.96 M677.96,528.87v-6h-12v6H677.96
				 M657.96,522.87v6h4v-6H657.96 M660.11,538.07c-1.47,1.47-2.2,3.23-2.2,5.3s0.73,3.83,2.2,5.3c1.47,1.47,3.23,2.2,5.3,2.2
				c2.07,0,3.83-0.73,5.3-2.2c1.47-1.47,2.2-3.23,2.2-5.3s-0.73-3.83-2.2-5.3s-3.23-2.2-5.3-2.2
				C663.34,535.87,661.57,536.6,660.11,538.07 M665.41,538.87c1.23,0,2.3,0.43,3.2,1.3c0.87,0.9,1.3,1.97,1.3,3.2
				c0,1.23-0.43,2.3-1.3,3.2c-0.9,0.87-1.97,1.3-3.2,1.3s-2.3-0.43-3.2-1.3c-0.87-0.9-1.3-1.97-1.3-3.2c0-1.23,0.43-2.3,1.3-3.2
				C663.11,539.3,664.17,538.87,665.41,538.87 M705.96,535.87h-8v29h8V535.87 M690.91,543.37c0-2.07-0.73-3.83-2.2-5.3
				s-3.23-2.2-5.3-2.2c-2.07,0-3.83,0.73-5.3,2.2c-1.47,1.47-2.2,3.23-2.2,5.3s0.73,3.83,2.2,5.3c1.47,1.47,3.23,2.2,5.3,2.2
				c2.07,0,3.83-0.73,5.3-2.2C690.17,547.2,690.91,545.43,690.91,543.37 M686.61,540.17c0.87,0.9,1.3,1.97,1.3,3.2
				c0,1.23-0.43,2.3-1.3,3.2c-0.9,0.87-1.97,1.3-3.2,1.3s-2.3-0.43-3.2-1.3c-0.87-0.9-1.3-1.97-1.3-3.2c0-1.23,0.43-2.3,1.3-3.2
				c0.9-0.87,1.97-1.3,3.2-1.3S685.71,539.3,686.61,540.17 M693.96,528.87v-6h-12v6H693.96 M697.96,522.87v6h8v-6H697.96z"/>
		</g>
	</g>
</g>
<g transform="matrix( 1, 0, 0, 1, 0,0) ">
	<g>
		<g id="Layer0_17_FILL">
			<path class="st3" d="M727.96,571.87v2h60.9c1.2-0.03,2.18-0.27,2.95-0.7c0.17-0.2,0.33-0.38,0.5-0.55
				c0.33-0.63,0.55-1.4,0.65-2.3v-0.35c0-0.1,0-0.18,0-0.25v-1.4c-0.1,0.9-0.32,1.67-0.65,2.3c-0.17,0.17-0.33,0.35-0.5,0.55
				c-0.77,0.43-1.75,0.67-2.95,0.7H727.96 M791.86,518.67c-0.8-0.5-1.85-0.77-3.15-0.8h-60.75v27.15h65v-22.8
				C792.92,520.65,792.56,519.47,791.86,518.67z"/>
			<path class="st4" d="M727.96,545.02v26.85h60.9c1.2-0.03,2.18-0.27,2.95-0.7c0.17-0.2,0.33-0.38,0.5-0.55
				c0.33-0.63,0.55-1.4,0.65-2.3v-0.35c0-0.1,0-0.18,0-0.25v-22.7H727.96 M791.86,516.67c-0.8-0.5-1.85-0.77-3.15-0.8h-60.75v2
				h60.75c1.3,0.03,2.35,0.3,3.15,0.8c0.7,0.8,1.07,1.98,1.1,3.55v-2C792.92,518.65,792.56,517.47,791.86,516.67z"/>
			<path class="st0" d="M795.11,512.87c-1.5-1.23-3.58-1.9-6.25-2h-60.9v5h60.75c1.3,0.03,2.35,0.3,3.15,0.8
				c0.7,0.8,1.07,1.98,1.1,3.55v2v22.8v22.7c0,0.07,0,0.15,0,0.25v0.35v1.4c0,0.07,0,0.15,0,0.25v0.35c-0.1,0.9-0.32,1.67-0.65,2.3
				c-0.17,0.17-0.33,0.35-0.5,0.55c-0.77,0.43-1.75,0.67-2.95,0.7h-60.9v5h60.9c2.6-0.07,4.65-0.7,6.15-1.9
				c0.43-0.4,0.83-0.82,1.2-1.25c0.03,0,0.05-0.02,0.05-0.05c0.97-1.37,1.53-3.1,1.7-5.2v-0.5c0-0.1,0-0.18,0-0.25v-49.65
				C797.86,516.8,796.91,514.4,795.11,512.87z"/>
			<path class="st5" d="M797.96,518.07c-0.1-3.27-1.05-5.67-2.85-7.2c-1.5-1.23-3.58-1.9-6.25-2h-60.9v2h60.9
				c2.67,0.1,4.75,0.77,6.25,2c1.8,1.53,2.75,3.93,2.85,7.2V518.07z"/>
		</g>
	</g>
</g>
<g transform="matrix( 1, 0, 0, 1, 0,0) ">
	<g>
		<g id="Layer0_17_MEMBER_0_FILL">
			<path class="st6" d="M744.96,546.87h40v-6h-40V546.87 M736.91,559.87v3h26v-3H736.91 M736.86,554.87v3h34v-3H736.86
				 M744.96,528.87h12v-6h-12V528.87 M736.96,528.87h4v-6h-4V528.87 M740.96,540.87h-4v6h4V540.87 M784.96,528.87v-6h-24v6H784.96
				 M764.96,537.87v-6h-28v6H764.96 M776.96,531.87v6h8v-6H776.96 M772.96,537.87v-6h-4v6H772.96z"/>
		</g>
	</g>
</g>
<g transform="matrix( 1, 0, 0, 1, 0,0) ">
	<g>
		<g id="Layer0_18_FILL">
			<path class="st3" d="M574.06,573.17c0.77,0.43,1.75,0.67,2.95,0.7h60.9v-2h-60.9c-1.2-0.03-2.18-0.27-2.95-0.7
				c-0.17-0.2-0.33-0.38-0.5-0.55c-0.33-0.63-0.55-1.4-0.65-2.3v1.4c0,0.07,0,0.15,0,0.25v0.35c0.1,0.9,0.32,1.67,0.65,2.3
				C573.72,572.78,573.89,572.97,574.06,573.17 M577.16,517.87c-1.3,0.03-2.35,0.3-3.15,0.8c-0.7,0.8-1.07,1.98-1.1,3.55v22.8h65
				v-27.15H577.16z"/>
			<path class="st4" d="M572.91,567.97v0.35c0.1,0.9,0.32,1.67,0.65,2.3c0.17,0.17,0.33,0.35,0.5,0.55c0.77,0.43,1.75,0.67,2.95,0.7
				h60.9v-26.85h-65v22.7C572.91,567.78,572.91,567.87,572.91,567.97 M637.91,517.87v-2h-60.75c-1.3,0.03-2.35,0.3-3.15,0.8
				c-0.7,0.8-1.07,1.98-1.1,3.55v2c0.03-1.57,0.4-2.75,1.1-3.55c0.8-0.5,1.85-0.77,3.15-0.8H637.91z"/>
			<path class="st5" d="M637.91,510.87v-2h-60.9c-2.67,0.1-4.75,0.77-6.25,2c-1.8,1.53-2.75,3.93-2.85,7.2v2
				c0.1-3.27,1.05-5.67,2.85-7.2c1.5-1.23,3.58-1.9,6.25-2H637.91z"/>
			<path class="st0" d="M637.91,515.87v-5h-60.9c-2.67,0.1-4.75,0.77-6.25,2c-1.8,1.53-2.75,3.93-2.85,7.2v49.65
				c0,0.07,0,0.15,0,0.25v0.5c0.17,2.1,0.73,3.83,1.7,5.2c0,0.03,0.02,0.05,0.05,0.05c0.37,0.43,0.77,0.85,1.2,1.25
				c1.5,1.2,3.55,1.83,6.15,1.9h60.9v-5h-60.9c-1.2-0.03-2.18-0.27-2.95-0.7c-0.17-0.2-0.33-0.38-0.5-0.55
				c-0.33-0.63-0.55-1.4-0.65-2.3v-0.35c0-0.1,0-0.18,0-0.25v-1.4v-0.35c0-0.1,0-0.18,0-0.25v-22.7v-22.8v-2
				c0.03-1.57,0.4-2.75,1.1-3.55c0.8-0.5,1.85-0.77,3.15-0.8H637.91z"/>
		</g>
	</g>
</g>
<g transform="matrix( 1, 0, 0, 1, 0,0) ">
	<g>
		<g id="Layer0_18_MEMBER_0_FILL">
			<path class="st6" d="M588.96,546.87h28v-6h-28V546.87 M628.91,562.87v-3h-26v3H628.91 M628.91,557.87v-3h-26v3H628.91
				 M588.41,551.87c-2.07,0-3.83,0.73-5.3,2.2s-2.2,3.23-2.2,5.3s0.73,3.83,2.2,5.3c1.47,1.47,3.23,2.2,5.3,2.2s3.83-0.73,5.3-2.2
				c1.47-1.47,2.2-3.23,2.2-5.3s-0.73-3.83-2.2-5.3S590.47,551.87,588.41,551.87 M585.21,556.17c0.9-0.87,1.97-1.3,3.2-1.3
				s2.3,0.43,3.2,1.3c0.87,0.9,1.3,1.97,1.3,3.2c0,1.23-0.43,2.3-1.3,3.2c-0.9,0.87-1.97,1.3-3.2,1.3s-2.3-0.43-3.2-1.3
				c-0.87-0.9-1.3-1.97-1.3-3.2C583.91,558.13,584.34,557.07,585.21,556.17 M592.96,537.87v-6h-12v6H592.96 M584.96,540.87h-4v6h4
				V540.87 M580.96,522.87v6h4v-6H580.96 M628.96,540.87h-8v6h8V540.87 M628.96,531.87h-8v6h8V531.87 M628.96,522.87h-8v6h8V522.87
				 M608.96,537.87v-6h-12v6H608.96 M600.96,528.87v-6h-12v6H600.96 M616.96,528.87v-6h-12v6H616.96 M616.96,531.87h-4v6h4V531.87z"
				/>
		</g>
	</g>
</g>
</svg>
