<?xml version="1.0" encoding="utf-8"?>
<!-- Generator: Adobe Illustrator 28.0.0, SVG Export Plug-In . SVG Version: 6.00 Build 0)  -->
<svg version="1.1" id="Layer_1" xmlns="http://www.w3.org/2000/svg" xmlns:xlink="http://www.w3.org/1999/xlink" x="0px" y="0px"
	 viewBox="0 0 1366 768" style="enable-background:new 0 0 1366 768;" xml:space="preserve">
<style type="text/css">
	.st0{fill:#44A8E9;}
	.st1{fill:#FFFFFF;}
	.st2{fill:#869595;}
	.st3{fill:#91A1A1;}
	.st4{fill:#419FDD;}
	.st5{fill:#ACC0C1;}
	.st6{fill:#B5CACB;}
	.st7{fill:#BFD6D7;}
</style>
<g transform="matrix( 1, 0, 0, 1, 0,0) ">
	<g>
		<g id="Layer0_59_FILL">
			<path class="st0" d="M702.93,368.87h-40v40h40V368.87 M692.33,387.22c0.4,0.4,0.6,0.87,0.6,1.4c0,0.57-0.2,1.05-0.6,1.45l-8,8
				c-0.4,0.37-0.87,0.55-1.4,0.55c-0.57,0-1.03-0.18-1.4-0.55l-8-8c-0.4-0.4-0.6-0.88-0.6-1.45c0-0.53,0.2-1,0.6-1.4l8-8
				c0.37-0.4,0.83-0.6,1.4-0.6c0.53,0,1,0.2,1.4,0.6L692.33,387.22 M682.93,380.62l-8,8l8,8l8-8L682.93,380.62 M677.78,388.62
				l5.15-5.15l5.15,5.15l-5.15,5.15L677.78,388.62z"/>
			<path class="st1" d="M692.93,388.62c0-0.53-0.2-1-0.6-1.4l-8-8c-0.4-0.4-0.87-0.6-1.4-0.6c-0.57,0-1.03,0.2-1.4,0.6l-8,8
				c-0.4,0.4-0.6,0.87-0.6,1.4c0,0.57,0.2,1.05,0.6,1.45l8,8c0.37,0.37,0.83,0.55,1.4,0.55c0.53,0,1-0.18,1.4-0.55l8-8
				C692.73,389.67,692.93,389.18,692.93,388.62 M674.93,388.62l8-8l8,8l-8,8L674.93,388.62 M682.93,383.47l-5.15,5.15l5.15,5.15
				l5.15-5.15L682.93,383.47z"/>
			<path class="st2" d="M707.93,418.87v-10h-5v10H707.93 M657.93,418.87h5v-10h-5V418.87 M657.93,358.87v10h5v-10H657.93
				 M707.93,368.87v-10h-5v10H707.93z"/>
			<path class="st3" d="M662.93,408.87v10h40v-10H662.93 M702.93,368.87v-10h-40v10H702.93z"/>
			<path class="st4" d="M662.93,368.87h-5v40h5V368.87 M707.93,368.87h-5v40h5V368.87z"/>
			<path class="st5" d="M707.93,350.87h-5v8h5V350.87 M662.93,350.87h-5v8h5V350.87 M677.93,350.87h-10v4h10V350.87z"/>
			<path class="st6" d="M667.93,350.87h-5v8h40v-8h-25v4h-10V350.87z"/>
			<path class="st7" d="M667.93,350.87h10h25h5v-2h-50v2h5H667.93z"/>
		</g>
	</g>
</g>
</svg>
