<?xml version="1.0" encoding="utf-8"?>
<!-- Generator: Adobe Illustrator 28.0.0, SVG Export Plug-In . SVG Version: 6.00 Build 0)  -->
<svg version="1.1" id="Layer_1" xmlns="http://www.w3.org/2000/svg" xmlns:xlink="http://www.w3.org/1999/xlink" x="0px" y="0px"
	 viewBox="0 0 1366 768" style="enable-background:new 0 0 1366 768;" xml:space="preserve">
<style type="text/css">
	.st0{fill:#869595;}
	.st1{fill:#91A1A1;}
	.st2{fill:#FC7317;}
	.st3{fill:#FFFFFF;}
	.st4{fill:#E86A17;}
	.st5{fill:#ACC0C1;}
	.st6{fill:#BFD6D7;}
	.st7{fill:#B5CACB;}
</style>
<g transform="matrix( 1, 0, 0, 1, 0,0) ">
	<g>
		<g id="Layer0_61_FILL">
			<path class="st0" d="M657.93,418.87h5v-10h-5V418.87 M702.93,408.87v10h5v-10H702.93 M702.93,358.87v10h5v-10H702.93
				 M662.93,368.87v-10h-5v10H662.93z"/>
			<path class="st1" d="M702.93,418.87v-10h-40v10H702.93 M662.93,358.87v10h40v-10H662.93z"/>
			<path class="st2" d="M702.93,368.87h-40v40h40V368.87 M691.93,393.17c0.43,0.6,0.73,1.13,0.9,1.6c0.07,0.13,0.12,0.27,0.15,0.4
				c0.03,0.07,0.05,0.13,0.05,0.2c0,0.13,0,0.27,0,0.4c-0.1,0.4-0.47,0.6-1.1,0.6h-17.95c-0.67,0-1.03-0.22-1.1-0.65
				c0-0.1,0-0.2,0-0.3s0.02-0.18,0.05-0.25c0.03-0.13,0.08-0.27,0.15-0.4c0.17-0.47,0.47-1,0.9-1.6l7.25-11.5
				c0.7-1.1,1.27-1.67,1.7-1.7c0.47,0.03,1.05,0.6,1.75,1.7L691.93,393.17 M683.68,392.52l-0.05-0.05
				c-0.17-0.17-0.38-0.25-0.65-0.25c-0.27,0-0.5,0.08-0.7,0.25v0.05c-0.13,0.1-0.2,0.25-0.2,0.45c-0.03,0-0.05,0.02-0.05,0.05
				c0,0.03,0,0.08,0,0.15c0,0.27,0.08,0.5,0.25,0.7c0.2,0.17,0.43,0.25,0.7,0.25c0.27,0,0.48-0.08,0.65-0.25
				c0.2-0.2,0.3-0.43,0.3-0.7c0-0.07,0-0.12,0-0.15c-0.03-0.03-0.05-0.07-0.05-0.1C683.85,392.75,683.78,392.62,683.68,392.52
				 M683.93,386.42c-0.27-0.27-0.58-0.4-0.95-0.4h-0.05c-0.37,0-0.68,0.13-0.95,0.4c-0.1,0.13-0.18,0.28-0.25,0.45
				c-0.03,0.07-0.05,0.12-0.05,0.15v0.05c0,0.07,0,0.15,0,0.25l0.3,3.7c0,0.13,0.05,0.27,0.15,0.4c0.03,0.03,0.08,0.07,0.15,0.1
				c0.1,0.07,0.18,0.12,0.25,0.15c0.13,0.03,0.27,0.05,0.4,0.05h0.1c0.13,0,0.27-0.02,0.4-0.05c0.07-0.03,0.13-0.08,0.2-0.15
				c0.07-0.03,0.13-0.07,0.2-0.1c0.07-0.13,0.12-0.27,0.15-0.4l0.25-3.7c0.03-0.1,0.03-0.18,0-0.25c0-0.03,0-0.07,0-0.1
				c0-0.07,0-0.12,0-0.15C684.13,386.65,684.03,386.52,683.93,386.42z"/>
			<path class="st3" d="M692.83,394.77c-0.17-0.47-0.47-1-0.9-1.6l-7.25-11.5c-0.7-1.1-1.28-1.67-1.75-1.7c-0.43,0.03-1,0.6-1.7,1.7
				l-7.25,11.5c-0.43,0.6-0.73,1.13-0.9,1.6c-0.07,0.13-0.12,0.27-0.15,0.4c-0.03,0.07-0.05,0.15-0.05,0.25s0,0.2,0,0.3
				c0.07,0.43,0.43,0.65,1.1,0.65h17.95c0.63,0,1-0.2,1.1-0.6c0-0.13,0-0.27,0-0.4c0-0.07-0.02-0.13-0.05-0.2
				C692.95,395.03,692.9,394.9,692.83,394.77 M682.98,386.02c0.37,0,0.68,0.13,0.95,0.4c0.1,0.1,0.2,0.23,0.3,0.4
				c0,0.03,0,0.08,0,0.15c0,0.03,0,0.07,0,0.1c0.03,0.07,0.03,0.15,0,0.25l-0.25,3.7c-0.03,0.13-0.08,0.27-0.15,0.4
				c-0.07,0.03-0.13,0.07-0.2,0.1c-0.07,0.07-0.13,0.12-0.2,0.15c-0.13,0.03-0.27,0.05-0.4,0.05h-0.1c-0.13,0-0.27-0.02-0.4-0.05
				c-0.07-0.03-0.15-0.08-0.25-0.15c-0.07-0.03-0.12-0.07-0.15-0.1c-0.1-0.13-0.15-0.27-0.15-0.4l-0.3-3.7c0-0.1,0-0.18,0-0.25
				v-0.05c0-0.03,0.02-0.08,0.05-0.15c0.07-0.17,0.15-0.32,0.25-0.45c0.27-0.27,0.58-0.4,0.95-0.4H682.98 M683.63,392.47l0.05,0.05
				c0.1,0.1,0.17,0.23,0.2,0.4c0,0.03,0.02,0.07,0.05,0.1c0,0.03,0,0.08,0,0.15c0,0.27-0.1,0.5-0.3,0.7
				c-0.17,0.17-0.38,0.25-0.65,0.25c-0.27,0-0.5-0.08-0.7-0.25c-0.17-0.2-0.25-0.43-0.25-0.7c0-0.07,0-0.12,0-0.15
				c0-0.03,0.02-0.05,0.05-0.05c0-0.2,0.07-0.35,0.2-0.45v-0.05c0.2-0.17,0.43-0.25,0.7-0.25
				C683.25,392.22,683.46,392.3,683.63,392.47z"/>
			<path class="st4" d="M707.93,368.87h-5v40h5V368.87 M662.93,368.87h-5v40h5V368.87z"/>
			<path class="st5" d="M707.93,358.87v-8h-5v8H707.93 M677.93,354.87v-4h-10v4H677.93 M662.93,358.87v-8h-5v8H662.93z"/>
			<path class="st6" d="M657.93,350.87h5h5h10h25h5v-2h-50V350.87z"/>
			<path class="st7" d="M662.93,350.87v8h40v-8h-25v4h-10v-4H662.93z"/>
		</g>
	</g>
</g>
</svg>
