<?xml version="1.0" encoding="utf-8"?>
<!-- Generator: Adobe Illustrator 28.0.0, SVG Export Plug-In . SVG Version: 6.00 Build 0)  -->
<svg version="1.1" id="Layer_1" xmlns="http://www.w3.org/2000/svg" xmlns:xlink="http://www.w3.org/1999/xlink" x="0px" y="0px"
	 viewBox="0 0 1366 768" style="enable-background:new 0 0 1366 768;" xml:space="preserve">
<style type="text/css">
	.st0{fill:#869595;}
	.st1{fill:#91A1A1;}
	.st2{fill:#2ECC71;}
	.st3{fill:#FFFFFF;}
	.st4{fill:#29B866;}
	.st5{fill:#ACC0C1;}
	.st6{fill:#B5CACB;}
	.st7{fill:#BFD6D7;}
</style>
<g transform="matrix( 1, 0, 0, 1, 0,0) ">
	<g>
		<g id="Layer0_58_FILL">
			<path class="st0" d="M657.93,418.87h5v-10h-5V418.87 M702.93,408.87v10h5v-10H702.93 M707.93,368.87v-10h-5v10H707.93
				 M657.93,358.87v10h5v-10H657.93z"/>
			<path class="st1" d="M702.93,418.87v-10h-40v10H702.93 M662.93,358.87v10h40v-10H662.93z"/>
			<path class="st2" d="M702.93,368.87h-40v40h40V368.87 M684.13,378.97c1.37,0.13,2.63,0.55,3.8,1.25c0.7,0.43,1.38,0.97,2.05,1.6
				c1.83,1.8,2.82,3.97,2.95,6.5c0,0.03,0,0.08,0,0.15v0.05c0,0.1,0,0.22,0,0.35c0,0.2,0,0.4,0,0.6c-0.13,2.5-1.12,4.67-2.95,6.5
				c-1.93,1.93-4.28,2.9-7.05,2.9c-2.8,0-5.17-0.97-7.1-2.9c-1.67-1.7-2.62-3.68-2.85-5.95c0-0.2,0-0.38,0-0.55
				c-0.03-0.2-0.05-0.4-0.05-0.6c0-0.13,0.02-0.25,0.05-0.35c0-0.13,0-0.27,0-0.4s0-0.27,0-0.4c0.23-2.27,1.18-4.23,2.85-5.9
				c0.67-0.67,1.38-1.22,2.15-1.65c1-0.6,2.12-0.98,3.35-1.15c0.5-0.1,1.03-0.15,1.6-0.15C683.33,378.87,683.73,378.9,684.13,378.97
				 M687.18,384.67c-0.9-0.9-1.92-1.45-3.05-1.65c-0.4-0.1-0.8-0.15-1.2-0.15c-0.57,0-1.1,0.07-1.6,0.2c-1,0.27-1.88,0.8-2.65,1.6
				c-0.13,0.1-0.25,0.22-0.35,0.35c-0.77,0.87-1.22,1.87-1.35,3c0,0.17,0,0.33,0,0.5c-0.03,0.1-0.05,0.22-0.05,0.35
				s0.02,0.25,0.05,0.35v0.1c0.07,1.47,0.63,2.75,1.7,3.85c1.13,1.13,2.55,1.7,4.25,1.7c1.63,0,3.05-0.57,4.25-1.7
				c1-1.03,1.58-2.25,1.75-3.65c0-0.1,0-0.2,0-0.3c0-0.1,0-0.22,0-0.35s0-0.25,0-0.35c-0.03-0.13-0.05-0.23-0.05-0.3
				c-0.1-1.13-0.53-2.17-1.3-3.1C687.45,384.95,687.31,384.8,687.18,384.67 M684.18,386.62v4.55c0,0.3-0.13,0.57-0.4,0.8
				c-0.23,0.23-0.5,0.35-0.8,0.35h-0.05c-0.33,0-0.62-0.12-0.85-0.35s-0.35-0.5-0.35-0.8v-4.55c0-0.3,0.12-0.58,0.35-0.85
				c0.23-0.23,0.52-0.35,0.85-0.35h0.05c0.3,0,0.57,0.12,0.8,0.35C684.05,386.03,684.18,386.32,684.18,386.62z"/>
			<path class="st3" d="M687.93,380.22c-1.17-0.7-2.43-1.12-3.8-1.25c-0.4-0.07-0.8-0.1-1.2-0.1c-0.57,0-1.1,0.05-1.6,0.15
				c-1.23,0.17-2.35,0.55-3.35,1.15c-0.77,0.43-1.48,0.98-2.15,1.65c-1.67,1.67-2.62,3.63-2.85,5.9c0,0.13,0,0.27,0,0.4
				s0,0.27,0,0.4c-0.03,0.1-0.05,0.22-0.05,0.35c0,0.2,0.02,0.4,0.05,0.6c0,0.17,0,0.35,0,0.55c0.23,2.27,1.18,4.25,2.85,5.95
				c1.93,1.93,4.3,2.9,7.1,2.9c2.77,0,5.12-0.97,7.05-2.9c1.83-1.83,2.82-4,2.95-6.5c0-0.2,0-0.4,0-0.6c0-0.13,0-0.25,0-0.35v-0.05
				c0-0.07,0-0.12,0-0.15c-0.13-2.53-1.12-4.7-2.95-6.5C689.31,381.18,688.63,380.65,687.93,380.22 M684.13,383.02
				c1.13,0.2,2.15,0.75,3.05,1.65c0.13,0.13,0.27,0.28,0.4,0.45c0.77,0.93,1.2,1.97,1.3,3.1c0,0.07,0.02,0.17,0.05,0.3
				c0,0.1,0,0.22,0,0.35s0,0.25,0,0.35c0,0.1,0,0.2,0,0.3c-0.17,1.4-0.75,2.62-1.75,3.65c-1.2,1.13-2.62,1.7-4.25,1.7
				c-1.7,0-3.12-0.57-4.25-1.7c-1.07-1.1-1.63-2.38-1.7-3.85v-0.1c-0.03-0.1-0.05-0.22-0.05-0.35s0.02-0.25,0.05-0.35
				c0-0.17,0-0.33,0-0.5c0.13-1.13,0.58-2.13,1.35-3c0.1-0.13,0.22-0.25,0.35-0.35c0.77-0.8,1.65-1.33,2.65-1.6
				c0.5-0.13,1.03-0.2,1.6-0.2C683.33,382.87,683.73,382.92,684.13,383.02 M684.18,391.17v-4.55c0-0.3-0.13-0.58-0.4-0.85
				c-0.23-0.23-0.5-0.35-0.8-0.35h-0.05c-0.33,0-0.62,0.12-0.85,0.35c-0.23,0.27-0.35,0.55-0.35,0.85v4.55c0,0.3,0.12,0.57,0.35,0.8
				s0.52,0.35,0.85,0.35h0.05c0.3,0,0.57-0.12,0.8-0.35C684.05,391.73,684.18,391.47,684.18,391.17z"/>
			<path class="st4" d="M707.93,368.87h-5v40h5V368.87 M662.93,368.87h-5v40h5V368.87z"/>
			<path class="st5" d="M707.93,358.87v-8h-5v8H707.93 M677.93,350.87h-10v4h10V350.87 M657.93,350.87v8h5v-8H657.93z"/>
			<path class="st6" d="M662.93,350.87v8h40v-8h-25v4h-10v-4H662.93z"/>
			<path class="st7" d="M657.93,348.87v2h5h5h10h25h5v-2H657.93z"/>
		</g>
	</g>
</g>
</svg>
