<?xml version="1.0" encoding="utf-8"?>
<!-- Generator: Adobe Illustrator 28.0.0, SVG Export Plug-In . SVG Version: 6.00 Build 0)  -->
<svg version="1.1" id="Layer_1" xmlns="http://www.w3.org/2000/svg" xmlns:xlink="http://www.w3.org/1999/xlink" x="0px" y="0px"
	 viewBox="0 0 1366 768" style="enable-background:new 0 0 1366 768;" xml:space="preserve">
<style type="text/css">
	.st0{fill:#FFCC00;}
	.st1{fill:#EEBE00;}
	.st2{fill:#869595;}
	.st3{fill:#91A1A1;}
	.st4{fill:#ACC0C1;}
	.st5{fill:#BFD6D7;}
	.st6{fill:#B5CACB;}
</style>
<g transform="matrix( 1, 0, 0, 1, 0,0) ">
	<g>
		<g id="Layer0_63_FILL">
			<path class="st0" d="M702.93,368.87h-40v40h40V368.87 M688.98,382.57c2.5-0.83,4.18-0.02,5.05,2.45l3.6,10.45
				c0.83,2.53,0,4.22-2.5,5.05l-10.5,3.6c-2.5,0.9-4.17,0.08-5-2.45l-3.6-10.5c-0.87-2.47-0.05-4.13,2.45-5L688.98,382.57
				 M688.93,397.07c-0.33-0.27-0.72-0.33-1.15-0.2c-0.37,0.1-0.65,0.33-0.85,0.7c-0.13,0.23-0.2,0.5-0.2,0.8v0.05
				c0,0.1,0.02,0.2,0.05,0.3c0.1,0.37,0.33,0.65,0.7,0.85c0.33,0.2,0.7,0.25,1.1,0.15c0.4-0.13,0.7-0.35,0.9-0.65
				c0.2-0.37,0.25-0.73,0.15-1.1c0-0.1-0.02-0.2-0.05-0.3c-0.03-0.03-0.07-0.07-0.1-0.1C689.38,397.37,689.2,397.2,688.93,397.07
				 M687.78,388.97c0-0.13-0.02-0.27-0.05-0.4c-0.03,0-0.05-0.02-0.05-0.05c-0.17-0.3-0.42-0.55-0.75-0.75
				c-0.5-0.3-1.03-0.37-1.6-0.2c-0.57,0.13-1,0.47-1.3,1c-0.17,0.3-0.25,0.63-0.25,1v0.05c0,0.13,0.03,0.28,0.1,0.45l1.95,5.4
				c0.1,0.3,0.33,0.52,0.7,0.65c0.33,0.1,0.7,0.1,1.1,0l0.1-0.05c0.3-0.1,0.58-0.28,0.85-0.55s0.37-0.55,0.3-0.85L687.78,388.97z"/>
			<path class="st1" d="M694.03,385.02c-0.87-2.47-2.55-3.28-5.05-2.45l-10.5,3.6c-2.5,0.87-3.32,2.53-2.45,5l3.6,10.5
				c0.83,2.53,2.5,3.35,5,2.45l10.5-3.6c2.5-0.83,3.33-2.52,2.5-5.05L694.03,385.02 M687.73,388.57c0.03,0.13,0.05,0.27,0.05,0.4
				l1.1,5.7c0.07,0.3-0.03,0.58-0.3,0.85s-0.55,0.45-0.85,0.55l-0.1,0.05c-0.4,0.1-0.77,0.1-1.1,0c-0.37-0.13-0.6-0.35-0.7-0.65
				l-1.95-5.4c-0.07-0.17-0.1-0.32-0.1-0.45v-0.05c0-0.37,0.08-0.7,0.25-1c0.3-0.53,0.73-0.87,1.3-1c0.57-0.17,1.1-0.1,1.6,0.2
				c0.33,0.2,0.58,0.45,0.75,0.75C687.68,388.55,687.7,388.57,687.73,388.57 M687.78,396.87c0.43-0.13,0.82-0.07,1.15,0.2
				c0.27,0.13,0.45,0.3,0.55,0.5c0.03,0.03,0.07,0.07,0.1,0.1c0.03,0.1,0.05,0.2,0.05,0.3c0.1,0.37,0.05,0.73-0.15,1.1
				c-0.2,0.3-0.5,0.52-0.9,0.65c-0.4,0.1-0.77,0.05-1.1-0.15c-0.37-0.2-0.6-0.48-0.7-0.85c-0.03-0.1-0.05-0.2-0.05-0.3v-0.05
				c0-0.3,0.07-0.57,0.2-0.8C687.13,397.2,687.41,396.97,687.78,396.87 M662.93,368.87h-5v40h5V368.87 M707.93,368.87h-5v40h5
				V368.87z"/>
			<path class="st2" d="M707.93,418.87v-10h-5v10H707.93 M657.93,418.87h5v-10h-5V418.87 M657.93,358.87v10h5v-10H657.93
				 M707.93,368.87v-10h-5v10H707.93z"/>
			<path class="st3" d="M662.93,408.87v10h40v-10H662.93 M702.93,368.87v-10h-40v10H702.93z"/>
			<path class="st4" d="M707.93,350.87h-5v8h5V350.87 M662.93,350.87h-5v8h5V350.87 M677.93,350.87h-10v4h10V350.87z"/>
			<path class="st5" d="M662.93,350.87h5h10h25h5v-2h-50v2H662.93z"/>
			<path class="st6" d="M667.93,350.87h-5v8h40v-8h-25v4h-10V350.87z"/>
		</g>
	</g>
</g>
</svg>
