<?xml version="1.0" encoding="utf-8"?>
<!-- Generator: Adobe Illustrator 28.0.0, SVG Export Plug-In . SVG Version: 6.00 Build 0)  -->
<svg version="1.1" id="Layer_1" xmlns="http://www.w3.org/2000/svg" xmlns:xlink="http://www.w3.org/1999/xlink" x="0px" y="0px"
	 viewBox="0 0 1366 768" style="enable-background:new 0 0 1366 768;" xml:space="preserve">
<style type="text/css">
	.st0{fill:#849EA1;}
	.st1{fill:#7D9598;}
	.st2{fill:#758C8E;}
</style>
<g transform="matrix( 1, 0, 0, 1, -70,-70) ">
	<g>
		<g id="Layer0_94_FILL">
			<path class="st0" d="M781.63,472.07c-0.4,0.3-1.08,0.92-2.05,1.85c-0.9,0.97-1.5,1.63-1.8,2c-0.5,0.7-0.73,1.3-0.7,1.8
				c-0.03,0.53,0.2,1.13,0.7,1.8c0.3,0.4,0.9,1.08,1.8,2.05c0.97,0.93,1.65,1.53,2.05,1.8c0.67,0.5,1.27,0.73,1.8,0.7
				c0.43,0.03,0.93-0.13,1.5-0.5v-11.7c-0.57-0.33-1.07-0.5-1.5-0.5C782.9,471.37,782.3,471.6,781.63,472.07 M784.93,425.42
				c-0.03,0-0.05,0.02-0.05,0.05c-0.13,0.1-0.23,0.22-0.3,0.35c-0.03,0.03-0.07,0.07-0.1,0.1c-0.77,0.9-1.17,1.72-1.2,2.45
				c-0.1,0.77,0.18,1.65,0.85,2.65c0.17,0.3,0.42,0.67,0.75,1.1l0.05,0.05V425.42 M726.43,484.72c-0.37,0.23-0.87,0.62-1.5,1.15h7.4
				c-0.3-0.33-0.55-0.58-0.75-0.75c-0.93-0.8-1.77-1.2-2.5-1.2C728.31,483.82,727.43,484.08,726.43,484.72 M725.08,475.92
				c-0.27-0.37-0.87-1.03-1.8-2c-1-0.93-1.68-1.55-2.05-1.85c-0.1-0.07-0.2-0.13-0.3-0.2v11.75c0.1-0.07,0.2-0.15,0.3-0.25
				c0.37-0.27,1.05-0.87,2.05-1.8c0.93-1,1.53-1.68,1.8-2.05c0.5-0.67,0.73-1.27,0.7-1.8C725.81,477.22,725.58,476.62,725.08,475.92
				 M765.13,462.57c-0.43,0.47-0.82,0.88-1.15,1.25c-0.67,0.73-1.15,1.3-1.45,1.7c-0.73,0.97-1.08,1.82-1.05,2.55
				c-0.03,0.77,0.32,1.63,1.05,2.6c0.43,0.6,1.3,1.58,2.6,2.95c1.37,1.3,2.35,2.18,2.95,2.65c0.97,0.7,1.82,1.03,2.55,1
				c0.77,0.03,1.63-0.3,2.6-1c0.57-0.43,1.55-1.32,2.95-2.65c1.33-1.37,2.22-2.35,2.65-2.95c0.7-0.97,1.03-1.83,1-2.6
				c0.03-0.73-0.3-1.58-1-2.55c-0.3-0.4-0.78-0.97-1.45-1.7c-0.37-0.37-0.77-0.78-1.2-1.25c-1.4-1.33-2.38-2.22-2.95-2.65
				c-0.97-0.7-1.83-1.03-2.6-1c-0.73-0.03-1.58,0.3-2.55,1C767.48,460.38,766.5,461.27,765.13,462.57 M765.83,431.32
				c-0.97-0.93-1.65-1.53-2.05-1.8c-0.67-0.5-1.27-0.75-1.8-0.75c-0.5,0-1.08,0.25-1.75,0.75c-0.4,0.27-1.08,0.87-2.05,1.8
				c-0.93,0.97-1.55,1.65-1.85,2.05c-0.47,0.67-0.7,1.25-0.7,1.75c0,0.53,0.23,1.13,0.7,1.8c0.3,0.4,0.92,1.08,1.85,2.05
				c0.97,0.93,1.65,1.55,2.05,1.85c0.67,0.47,1.25,0.7,1.75,0.7c0.53,0,1.13-0.23,1.8-0.7c0.4-0.3,1.08-0.92,2.05-1.85
				c0.93-0.97,1.53-1.65,1.8-2.05c0.5-0.67,0.73-1.27,0.7-1.8c0.03-0.5-0.2-1.08-0.7-1.75C767.36,433,766.76,432.32,765.83,431.32
				 M724.93,421.87c-0.47,0.33-1.02,0.75-1.65,1.25c-1.07,0.97-1.85,1.73-2.35,2.3v6.75c0.4,0.53,0.92,1.2,1.55,2
				c1.3,1.43,2.22,2.38,2.75,2.85c0.9,0.77,1.73,1.17,2.5,1.2c0.73,0.07,1.62-0.22,2.65-0.85c0.63-0.4,1.67-1.2,3.1-2.4
				c1.43-1.27,2.38-2.18,2.85-2.75c0.77-0.9,1.17-1.73,1.2-2.5c0.1-0.73-0.17-1.62-0.8-2.65c-0.2-0.3-0.48-0.72-0.85-1.25
				c-0.43-0.53-0.95-1.17-1.55-1.9c-0.8-0.87-1.47-1.55-2-2.05H724.93z"/>
			<path class="st1" d="M768.03,484.32c-0.57,0.57-1.05,1.08-1.45,1.55h13.95c-0.43-0.47-0.92-0.98-1.45-1.55
				c-1.4-1.33-2.38-2.2-2.95-2.6c-0.97-0.7-1.83-1.05-2.6-1.05c-0.73,0-1.58,0.35-2.55,1.05
				C770.38,482.15,769.4,483.02,768.03,484.32 M753.18,474.42c-1.37-1-2.58-1.48-3.65-1.45c-1.03-0.03-2.23,0.45-3.6,1.45
				c-0.8,0.6-2.18,1.83-4.15,3.7c-1.87,1.97-3.1,3.37-3.7,4.2c-1,1.33-1.48,2.52-1.45,3.55h25.85c0.03-1.03-0.45-2.22-1.45-3.55
				c-0.6-0.83-1.83-2.23-3.7-4.2C755.36,476.25,753.98,475.02,753.18,474.42 M760.83,425.82c0.07-0.1,0.13-0.2,0.2-0.3
				c1-1.37,1.48-2.58,1.45-3.65h-25.85c-0.03,1.07,0.45,2.28,1.45,3.65c0.07,0.1,0.15,0.2,0.25,0.3c0.63,0.83,1.78,2.12,3.45,3.85
				c1.97,1.87,3.35,3.1,4.15,3.7c1.37,1,2.57,1.48,3.6,1.45c1.07,0.03,2.28-0.45,3.65-1.45c0.8-0.6,2.18-1.83,4.15-3.7
				C759,427.93,760.16,426.65,760.83,425.82 M784.93,435.42h-0.05c-1.37-1.03-2.6-1.53-3.7-1.5c-1.1-0.03-2.35,0.47-3.75,1.5
				c-0.87,0.63-2.32,1.92-4.35,3.85c-1.93,2.03-3.22,3.48-3.85,4.35c-1.03,1.43-1.53,2.7-1.5,3.8c-0.03,1.1,0.47,2.35,1.5,3.75
				c0.63,0.87,1.92,2.32,3.85,4.35c2.03,1.93,3.48,3.22,4.35,3.85c1.4,1.03,2.65,1.53,3.75,1.5c1.1,0.03,2.35-0.45,3.75-1.45V435.42
				 M782.73,425.82c0-0.77-0.35-1.62-1.05-2.55c-0.23-0.33-0.63-0.8-1.2-1.4h-13.85c-0.57,0.6-0.98,1.07-1.25,1.4
				c-0.7,0.93-1.03,1.78-1,2.55v0.05c-0.03,0.73,0.3,1.58,1,2.55c0.43,0.6,1.32,1.58,2.65,2.95c1.37,1.33,2.35,2.22,2.95,2.65
				c0.97,0.7,1.82,1.03,2.55,1c0.77,0.03,1.63-0.3,2.6-1c0.57-0.43,1.55-1.32,2.95-2.65c1.3-1.37,2.17-2.35,2.6-2.95
				c0.7-0.97,1.05-1.82,1.05-2.55V425.82 M725.28,439.27c-2.07-1.97-3.5-3.25-4.3-3.85h-0.05v24l0.05-0.05
				c0.8-0.6,2.23-1.88,4.3-3.85c1.93-2.03,3.22-3.48,3.85-4.35c1.03-1.4,1.53-2.65,1.5-3.75c0.03-1.1-0.47-2.37-1.5-3.8
				C728.5,442.75,727.21,441.3,725.28,439.27 M745.38,444.92c-2.07,1.9-3.43,3.27-4.1,4.1c-1.13,1.37-1.72,2.6-1.75,3.7
				c-0.1,1.07,0.33,2.35,1.3,3.85c0.57,0.87,1.77,2.38,3.6,4.55c1,1.1,1.87,2,2.6,2.7c0.6,0.63,1.1,1.1,1.5,1.4
				c1.37,1.1,2.58,1.67,3.65,1.7c1.1,0.1,2.4-0.32,3.9-1.25c0.53-0.37,1.35-0.98,2.45-1.85c0.6-0.5,1.3-1.08,2.1-1.75
				c2.03-1.9,3.4-3.27,4.1-4.1c1.13-1.37,1.72-2.6,1.75-3.7c0.1-1.1-0.33-2.38-1.3-3.85c-0.57-0.87-1.77-2.38-3.6-4.55
				c-1.9-2.07-3.27-3.43-4.1-4.1c-1.37-1.13-2.6-1.72-3.7-1.75c-1.1-0.1-2.38,0.33-3.85,1.3
				C749.03,441.88,747.51,443.08,745.38,444.92 M739.93,436.57c-0.6-0.6-1.15-0.93-1.65-1c-0.5-0.07-1.12,0.08-1.85,0.45
				c-0.43,0.23-1.2,0.73-2.3,1.5c-1.03,0.83-1.73,1.43-2.1,1.8c-0.57,0.6-0.88,1.15-0.95,1.65c-0.1,0.5,0.05,1.12,0.45,1.85
				c0.23,0.43,0.73,1.2,1.5,2.3c0.8,1.07,1.38,1.77,1.75,2.1c0.6,0.6,1.15,0.92,1.65,0.95c0.53,0.1,1.15-0.05,1.85-0.45
				c0.47-0.23,1.23-0.73,2.3-1.5c1.07-0.83,1.77-1.42,2.1-1.75c0.6-0.6,0.92-1.15,0.95-1.65c0.1-0.53-0.03-1.15-0.4-1.85
				c-0.23-0.43-0.73-1.2-1.5-2.3C740.9,437.6,740.3,436.9,739.93,436.57 M726.18,463.82l-0.05,0.05c-0.6,1.03-0.85,1.92-0.75,2.65
				c0.03,0.73,0.47,1.55,1.3,2.45c0.47,0.53,1.43,1.42,2.9,2.65c1.53,1.17,2.62,1.92,3.25,2.25c1.03,0.6,1.92,0.85,2.65,0.75
				c0.77-0.07,1.58-0.5,2.45-1.3c0.53-0.5,1.42-1.48,2.65-2.95c1.17-1.5,1.93-2.57,2.3-3.2c0.6-1.03,0.83-1.93,0.7-2.7
				c0-0.2-0.03-0.42-0.1-0.65c-0.2-0.57-0.6-1.17-1.2-1.8c-0.5-0.53-1.47-1.4-2.9-2.6c-1.53-1.17-2.62-1.93-3.25-2.3
				c-1.03-0.6-1.92-0.85-2.65-0.75c-0.77,0.07-1.58,0.5-2.45,1.3c-0.53,0.5-1.42,1.48-2.65,2.95
				C727.25,462.12,726.51,463.18,726.18,463.82z"/>
			<path class="st2" d="M720.98,435.42c0.8,0.6,2.23,1.88,4.3,3.85c1.93,2.03,3.22,3.48,3.85,4.35c1.03,1.43,1.53,2.7,1.5,3.8
				c0.03,1.1-0.47,2.35-1.5,3.75c-0.63,0.87-1.92,2.32-3.85,4.35c-2.07,1.97-3.5,3.25-4.3,3.85l-0.05,0.05v12.45
				c0.1,0.07,0.2,0.13,0.3,0.2c0.37,0.3,1.05,0.92,2.05,1.85c0.93,0.97,1.53,1.63,1.8,2c0.5,0.7,0.73,1.3,0.7,1.8
				c0.03,0.53-0.2,1.13-0.7,1.8c-0.27,0.37-0.87,1.05-1.8,2.05c-1,0.93-1.68,1.53-2.05,1.8c-0.1,0.1-0.2,0.18-0.3,0.25v2.25h4
				c0.63-0.53,1.13-0.92,1.5-1.15c1-0.63,1.88-0.9,2.65-0.8c0.73,0,1.57,0.4,2.5,1.2c0.2,0.17,0.45,0.42,0.75,0.75h4.3
				c-0.03-1.03,0.45-2.22,1.45-3.55c0.6-0.83,1.83-2.23,3.7-4.2c1.97-1.87,3.35-3.1,4.15-3.7c1.37-1,2.57-1.48,3.6-1.45
				c1.07-0.03,2.28,0.45,3.65,1.45c0.8,0.6,2.18,1.83,4.15,3.7c1.87,1.97,3.1,3.37,3.7,4.2c1,1.33,1.48,2.52,1.45,3.55h4.1
				c0.4-0.47,0.88-0.98,1.45-1.55c1.37-1.3,2.35-2.17,2.95-2.6c0.97-0.7,1.82-1.05,2.55-1.05c0.77,0,1.63,0.35,2.6,1.05
				c0.57,0.4,1.55,1.27,2.95,2.6c0.53,0.57,1.02,1.08,1.45,1.55h4.4v-2.3c-0.57,0.37-1.07,0.53-1.5,0.5c-0.53,0.03-1.13-0.2-1.8-0.7
				c-0.4-0.27-1.08-0.87-2.05-1.8c-0.9-0.97-1.5-1.65-1.8-2.05c-0.5-0.67-0.73-1.27-0.7-1.8c-0.03-0.5,0.2-1.1,0.7-1.8
				c0.3-0.37,0.9-1.03,1.8-2c0.97-0.93,1.65-1.55,2.05-1.85c0.67-0.47,1.27-0.7,1.8-0.7c0.43,0,0.93,0.17,1.5,0.5v-12.45
				c-1.4,1-2.65,1.48-3.75,1.45c-1.1,0.03-2.35-0.47-3.75-1.5c-0.87-0.63-2.32-1.92-4.35-3.85c-1.93-2.03-3.22-3.48-3.85-4.35
				c-1.03-1.4-1.53-2.65-1.5-3.75c-0.03-1.1,0.47-2.37,1.5-3.8c0.63-0.87,1.92-2.32,3.85-4.35c2.03-1.93,3.48-3.22,4.35-3.85
				c1.4-1.03,2.65-1.53,3.75-1.5c1.1-0.03,2.33,0.47,3.7,1.5h0.05v-3.25l-0.05-0.05c-0.33-0.43-0.58-0.8-0.75-1.1
				c-0.67-1-0.95-1.88-0.85-2.65c0.03-0.73,0.43-1.55,1.2-2.45c0.03-0.03,0.07-0.07,0.1-0.1c0.07-0.13,0.17-0.25,0.3-0.35
				c0-0.03,0.02-0.05,0.05-0.05v-3.55h-4.45c0.57,0.6,0.97,1.07,1.2,1.4c0.7,0.93,1.05,1.78,1.05,2.55v0.05
				c0,0.73-0.35,1.58-1.05,2.55c-0.43,0.6-1.3,1.58-2.6,2.95c-1.4,1.33-2.38,2.22-2.95,2.65c-0.97,0.7-1.83,1.03-2.6,1
				c-0.73,0.03-1.58-0.3-2.55-1c-0.6-0.43-1.58-1.32-2.95-2.65c-1.33-1.37-2.22-2.35-2.65-2.95c-0.7-0.97-1.03-1.82-1-2.55v-0.05
				c-0.03-0.77,0.3-1.62,1-2.55c0.27-0.33,0.68-0.8,1.25-1.4h-4.15c0.03,1.07-0.45,2.28-1.45,3.65c-0.07,0.1-0.13,0.2-0.2,0.3
				c-0.67,0.83-1.83,2.12-3.5,3.85c-1.97,1.87-3.35,3.1-4.15,3.7c-1.37,1-2.58,1.48-3.65,1.45c-1.03,0.03-2.23-0.45-3.6-1.45
				c-0.8-0.6-2.18-1.83-4.15-3.7c-1.67-1.73-2.82-3.02-3.45-3.85c-0.1-0.1-0.18-0.2-0.25-0.3c-1-1.37-1.48-2.58-1.45-3.65h-4.3
				c0.53,0.5,1.2,1.18,2,2.05c0.6,0.73,1.12,1.37,1.55,1.9c0.37,0.53,0.65,0.95,0.85,1.25c0.63,1.03,0.9,1.92,0.8,2.65
				c-0.03,0.77-0.43,1.6-1.2,2.5c-0.47,0.57-1.42,1.48-2.85,2.75c-1.43,1.2-2.47,2-3.1,2.4c-1.03,0.63-1.92,0.92-2.65,0.85
				c-0.77-0.03-1.6-0.43-2.5-1.2c-0.53-0.47-1.45-1.42-2.75-2.85c-0.63-0.8-1.15-1.47-1.55-2v3.25H720.98 M726.13,463.87l0.05-0.05
				c0.33-0.63,1.07-1.7,2.2-3.2c1.23-1.47,2.12-2.45,2.65-2.95c0.87-0.8,1.68-1.23,2.45-1.3c0.73-0.1,1.62,0.15,2.65,0.75
				c0.63,0.37,1.72,1.13,3.25,2.3c1.43,1.2,2.4,2.07,2.9,2.6c0.6,0.63,1,1.23,1.2,1.8c0.07,0.23,0.1,0.45,0.1,0.65
				c0.13,0.77-0.1,1.67-0.7,2.7c-0.37,0.63-1.13,1.7-2.3,3.2c-1.23,1.47-2.12,2.45-2.65,2.95c-0.87,0.8-1.68,1.23-2.45,1.3
				c-0.73,0.1-1.62-0.15-2.65-0.75c-0.63-0.33-1.72-1.08-3.25-2.25c-1.47-1.23-2.43-2.12-2.9-2.65c-0.83-0.9-1.27-1.72-1.3-2.45
				C725.28,465.78,725.53,464.9,726.13,463.87 M738.28,435.57c0.5,0.07,1.05,0.4,1.65,1c0.37,0.33,0.97,1.03,1.8,2.1
				c0.77,1.1,1.27,1.87,1.5,2.3c0.37,0.7,0.5,1.32,0.4,1.85c-0.03,0.5-0.35,1.05-0.95,1.65c-0.33,0.33-1.03,0.92-2.1,1.75
				c-1.07,0.77-1.83,1.27-2.3,1.5c-0.7,0.4-1.32,0.55-1.85,0.45c-0.5-0.03-1.05-0.35-1.65-0.95c-0.37-0.33-0.95-1.03-1.75-2.1
				c-0.77-1.1-1.27-1.87-1.5-2.3c-0.4-0.73-0.55-1.35-0.45-1.85c0.07-0.5,0.38-1.05,0.95-1.65c0.37-0.37,1.07-0.97,2.1-1.8
				c1.1-0.77,1.87-1.27,2.3-1.5C737.16,435.65,737.78,435.5,738.28,435.57 M741.28,449.02c0.67-0.83,2.03-2.2,4.1-4.1
				c2.13-1.83,3.65-3.03,4.55-3.6c1.47-0.97,2.75-1.4,3.85-1.3c1.1,0.03,2.33,0.62,3.7,1.75c0.83,0.67,2.2,2.03,4.1,4.1
				c1.83,2.17,3.03,3.68,3.6,4.55c0.97,1.47,1.4,2.75,1.3,3.85c-0.03,1.1-0.62,2.33-1.75,3.7c-0.7,0.83-2.07,2.2-4.1,4.1
				c-0.8,0.67-1.5,1.25-2.1,1.75c-1.1,0.87-1.92,1.48-2.45,1.85c-1.5,0.93-2.8,1.35-3.9,1.25c-1.07-0.03-2.28-0.6-3.65-1.7
				c-0.4-0.3-0.9-0.77-1.5-1.4c-0.73-0.7-1.6-1.6-2.6-2.7c-1.83-2.17-3.03-3.68-3.6-4.55c-0.97-1.5-1.4-2.78-1.3-3.85
				C739.56,451.62,740.15,450.38,741.28,449.02 M763.78,429.52c0.4,0.27,1.08,0.87,2.05,1.8c0.93,1,1.53,1.68,1.8,2.05
				c0.5,0.67,0.73,1.25,0.7,1.75c0.03,0.53-0.2,1.13-0.7,1.8c-0.27,0.4-0.87,1.08-1.8,2.05c-0.97,0.93-1.65,1.55-2.05,1.85
				c-0.67,0.47-1.27,0.7-1.8,0.7c-0.5,0-1.08-0.23-1.75-0.7c-0.4-0.3-1.08-0.92-2.05-1.85c-0.93-0.97-1.55-1.65-1.85-2.05
				c-0.47-0.67-0.7-1.27-0.7-1.8c0-0.5,0.23-1.08,0.7-1.75c0.3-0.4,0.92-1.08,1.85-2.05c0.97-0.93,1.65-1.53,2.05-1.8
				c0.67-0.5,1.25-0.75,1.75-0.75C762.51,428.77,763.11,429.02,763.78,429.52 M763.98,463.82c0.33-0.37,0.72-0.78,1.15-1.25
				c1.37-1.3,2.35-2.18,2.95-2.65c0.97-0.7,1.82-1.03,2.55-1c0.77-0.03,1.63,0.3,2.6,1c0.57,0.43,1.55,1.32,2.95,2.65
				c0.43,0.47,0.83,0.88,1.2,1.25c0.67,0.73,1.15,1.3,1.45,1.7c0.7,0.97,1.03,1.82,1,2.55c0.03,0.77-0.3,1.63-1,2.6
				c-0.43,0.6-1.32,1.58-2.65,2.95c-1.4,1.33-2.38,2.22-2.95,2.65c-0.97,0.7-1.83,1.03-2.6,1c-0.73,0.03-1.58-0.3-2.55-1
				c-0.6-0.47-1.58-1.35-2.95-2.65c-1.3-1.37-2.17-2.35-2.6-2.95c-0.73-0.97-1.08-1.83-1.05-2.6c-0.03-0.73,0.32-1.58,1.05-2.55
				C762.83,465.12,763.31,464.55,763.98,463.82 M720.93,421.87v3.55c0.5-0.57,1.28-1.33,2.35-2.3c0.63-0.5,1.18-0.92,1.65-1.25
				H720.93z"/>
		</g>
	</g>
</g>
</svg>
