<?xml version="1.0" encoding="utf-8"?>
<!-- Generator: Adobe Illustrator 28.0.0, SVG Export Plug-In . SVG Version: 6.00 Build 0)  -->
<svg version="1.1" id="Layer_1" xmlns="http://www.w3.org/2000/svg" xmlns:xlink="http://www.w3.org/1999/xlink" x="0px" y="0px"
	 viewBox="0 0 128 128" style="enable-background:new 0 0 128 128;" xml:space="preserve">
<style type="text/css">
	.st0{fill:#353541;}
	.st1{fill:url(#SVGID_1_);}
	.st2{fill:url(#SVGID_00000137829387703394454050000013667422597320597692_);}
	.st3{fill:url(#SVGID_00000171690582890429640900000011852980362351227029_);}
	.st4{fill:url(#SVGID_00000180325468438381942970000004422560176024155530_);}
	.st5{fill:#5DD4AA;}
	.st6{fill:#353541;fill-opacity:0.2;}
	.st7{fill:url(#SVGID_00000052819555752630140920000007102041623336982450_);}
	.st8{fill:#24483F;}
	.st9{fill:#5D5D67;}
	.st10{fill:#7DDCBB;}
	.st11{fill:#FFFFFF;fill-opacity:0.2;}
</style>
<g>
	<path class="st0" d="M64.15,31c10.67,0,19.8,3.78,27.4,11.35c7.5,7.5,11.25,16.57,11.25,27.2c0,9.57-2.98,17.88-8.95,24.95
		c1.53,1.33,2.97,2.83,4.3,4.5v0.05c1.67,2.1,2.37,4.5,2.1,7.2v0.1c-0.33,2.67-1.55,4.85-3.65,6.55c-2.17,1.73-4.58,2.47-7.25,2.2
		H89.3l-3.3-0.95v3.9c0,2.73-0.97,5.08-2.9,7.05c-1.97,1.93-4.32,2.9-7.05,2.9c-2.73,0-5.07-0.97-7-2.9
		c-1.73-1.73-2.68-3.77-2.85-6.1l-2,0.05l-2.35-0.1c-0.23,2.37-1.2,4.42-2.9,6.15c-1.97,1.93-4.32,2.9-7.05,2.9
		c-2.73,0-5.07-0.97-7-2.9c-1.97-1.97-2.93-4.32-2.9-7.05v-3.9l-3.25,0.95H38.7c-2.7,0.27-5.12-0.47-7.25-2.2
		c-2.13-1.7-3.35-3.88-3.65-6.55v-0.1c-0.3-2.7,0.38-5.1,2.05-7.2L29.9,99c1.37-1.73,2.87-3.3,4.5-4.7c-5.93-7-8.9-15.25-8.9-24.75
		c0-10.63,3.8-19.72,11.4-27.25v0.05C44.43,34.78,53.52,31,64.15,31"/>
	
		<linearGradient id="SVGID_1_" gradientUnits="userSpaceOnUse" x1="-45542.6523" y1="-35841.3711" x2="-43904.25" y2="-35841.3711" gradientTransform="matrix(0 -7.232666e-03 -0.017 0 -533.1678 -207.9198)">
		<stop  offset="0" style="stop-color:#5DD4AA"/>
		<stop  offset="1" style="stop-color:#3DB88D"/>
	</linearGradient>
	<path class="st1" d="M82,118.05c0,1.63-0.58,3.03-1.75,4.2s-2.57,1.75-4.2,1.75c-1.63,0-3.03-0.58-4.2-1.75
		c-1.17-1.17-1.73-2.57-1.7-4.2v-16c-0.03-1.63,0.53-3.03,1.7-4.2c1.17-1.17,2.57-1.73,4.2-1.7c1.63-0.03,3.03,0.53,4.2,1.7
		c1.17,1.17,1.75,2.57,1.75,4.2V118.05"/>
	
		<linearGradient id="SVGID_00000140724324087163429960000013526543539075542400_" gradientUnits="userSpaceOnUse" x1="-45542.6523" y1="-35841.3711" x2="-43904.25" y2="-35841.3711" gradientTransform="matrix(0 -7.232666e-03 -0.017 0 -557.3177 -207.9198)">
		<stop  offset="0" style="stop-color:#5DD4AA"/>
		<stop  offset="1" style="stop-color:#3DB88D"/>
	</linearGradient>
	<path style="fill:url(#SVGID_00000140724324087163429960000013526543539075542400_);" d="M57.85,118.05c0,1.63-0.58,3.03-1.75,4.2
		c-1.17,1.17-2.57,1.75-4.2,1.75s-3.03-0.58-4.2-1.75c-1.17-1.17-1.73-2.57-1.7-4.2v-16c-0.03-1.63,0.53-3.03,1.7-4.2
		c1.17-1.17,2.57-1.73,4.2-1.7c1.63-0.03,3.03,0.53,4.2,1.7c1.17,1.17,1.75,2.57,1.75,4.2V118.05"/>
	
		<linearGradient id="SVGID_00000130617998590776591140000007170496406482739381_" gradientUnits="userSpaceOnUse" x1="-64354.4453" y1="-16341.5381" x2="-62716.0469" y2="-16341.5381" gradientTransform="matrix(-7.446289e-03 -7.446289e-03 -8.758545e-03 8.758545e-03 -529.7692 -227.1344)">
		<stop  offset="0" style="stop-color:#5DD4AA"/>
		<stop  offset="1" style="stop-color:#4CC299"/>
	</linearGradient>
	<path style="fill:url(#SVGID_00000130617998590776591140000007170496406482739381_);" d="M95,101.5c1,1.27,1.42,2.72,1.25,4.35
		c-0.2,1.6-0.93,2.92-2.2,3.95c-1.27,1.03-2.7,1.47-4.3,1.3c-1.63-0.2-2.97-0.93-4-2.2c-2.47-3.03-5.5-5.2-9.1-6.5
		c-1.57-0.6-2.68-1.63-3.35-3.1c-0.7-1.5-0.77-3-0.2-4.5c0.57-1.57,1.6-2.68,3.1-3.35l4.5-0.2C86.4,93.32,91.17,96.73,95,101.5"/>
	
		<linearGradient id="SVGID_00000153702334087159150320000004711690265414220191_" gradientUnits="userSpaceOnUse" x1="18639.9141" y1="54218.1289" x2="20278.3145" y2="54218.1289" gradientTransform="matrix(7.446289e-03 -7.446289e-03 8.758545e-03 8.758545e-03 -578.2308 -227.1344)">
		<stop  offset="0" style="stop-color:#5DD4AA"/>
		<stop  offset="1" style="stop-color:#4CC299"/>
	</linearGradient>
	<path style="fill:url(#SVGID_00000153702334087159150320000004711690265414220191_);" d="M33,101.5c3.83-4.77,8.6-8.18,14.3-10.25
		l4.5,0.2c1.5,0.67,2.53,1.78,3.1,3.35c0.57,1.5,0.5,3-0.2,4.5c-0.67,1.47-1.78,2.5-3.35,3.1c-3.6,1.3-6.63,3.47-9.1,6.5
		c-1.03,1.27-2.37,2-4,2.2c-1.6,0.17-3.03-0.27-4.3-1.3c-1.27-1.03-2-2.35-2.2-3.95C31.58,104.22,32,102.77,33,101.5"/>
	<path class="st0" d="M91.75,69.55c0,7.67-2.67,14.2-8,19.6c-5.47,5.37-12,8.05-19.6,8.05c-7.6,0-14.08-2.68-19.45-8.05
		c-5.47-5.4-8.2-11.93-8.2-19.6c0-7.6,2.73-14.05,8.2-19.35v-0.05C50.07,44.72,56.55,42,64.15,42s14.13,2.72,19.6,8.15
		C89.08,55.48,91.75,61.95,91.75,69.55"/>
	<path class="st5" d="M47.6,108.6c-4.3-4.13-5.73-8.98-4.3-14.55l-1.3-20c-0.2-5.47,1.8-10.17,6-14.1
		c3.13-3.03,6.82-4.92,11.05-5.65l4.55-0.45c6.17,0,11.38,2.03,15.65,6.1c4.13,3.93,6.13,8.63,6,14.1l-1.2,20
		c2.17,5.57,1.08,10.42-3.25,14.55c-4.43,4.3-9.97,6.45-16.6,6.45C57.6,115.05,52.07,112.9,47.6,108.6"/>
	<path class="st6" d="M82.5,98.4c0,2.3-1.77,4.25-5.3,5.85c-3.47,1.67-7.7,2.5-12.7,2.5c-4.97,0-9.2-0.83-12.7-2.5
		c-3.53-1.6-5.3-3.55-5.3-5.85l0.2-1.2h35.65L82.5,98.4"/>
	
		<linearGradient id="SVGID_00000183935419070959390860000006431790473426041243_" gradientUnits="userSpaceOnUse" x1="6105.8232" y1="15080.9541" x2="7744.2236" y2="15080.9541" gradientTransform="matrix(0 0.0423 0.0422 0 -572.8141 -223.2602)">
		<stop  offset="0" style="stop-color:#FFFFFF"/>
		<stop  offset="1" style="stop-color:#C4E7F3"/>
	</linearGradient>
	<path style="fill:url(#SVGID_00000183935419070959390860000006431790473426041243_);" d="M88.7,45.15
		c6.73,6.73,10.1,14.87,10.1,24.4c0,9.63-3.37,17.83-10.1,24.6c-6.8,6.7-14.98,10.05-24.55,10.05c-9.53,0-17.68-3.35-24.45-10.05
		c-6.8-6.77-10.2-14.97-10.2-24.6c0-9.53,3.4-17.67,10.2-24.4C46.47,38.38,54.62,35,64.15,35C73.72,35,81.9,38.38,88.7,45.15
		 M91.75,69.55c0-7.6-2.67-14.07-8-19.4c-5.47-5.43-12-8.15-19.6-8.15s-14.08,2.72-19.45,8.15v0.05c-5.47,5.3-8.2,11.75-8.2,19.35
		c0,7.67,2.73,14.2,8.2,19.6c5.37,5.37,11.85,8.05,19.45,8.05c7.6,0,14.13-2.68,19.6-8.05C89.08,83.75,91.75,77.22,91.75,69.55"/>
	<path class="st0" d="M79,81c0,1.37-0.5,2.53-1.5,3.5c-0.97,1-2.13,1.5-3.5,1.5c-1.43,0-2.62-0.5-3.55-1.5
		C69.48,83.53,69,82.37,69,81c0-1.4,0.48-2.6,1.45-3.6C71.38,76.47,72.57,76,74,76c1.37,0,2.53,0.47,3.5,1.4
		C78.5,78.4,79,79.6,79,81 M78,80c0-0.57-0.2-1.05-0.6-1.45C77,78.18,76.53,78,76,78c-0.57,0-1.03,0.18-1.4,0.55
		C74.2,78.95,74,79.43,74,80c0,0.53,0.2,1,0.6,1.4c0.37,0.4,0.83,0.6,1.4,0.6c0.53,0,1-0.2,1.4-0.6C77.8,81,78,80.53,78,80 M59,81
		c0,1.37-0.5,2.53-1.5,3.5c-0.97,1-2.13,1.5-3.5,1.5c-1.43,0-2.62-0.5-3.55-1.5C49.48,83.53,49,82.37,49,81c0-1.4,0.48-2.6,1.45-3.6
		C51.38,76.47,52.57,76,54,76c1.37,0,2.53,0.47,3.5,1.4C58.5,78.4,59,79.6,59,81 M58,80c0-0.57-0.2-1.05-0.6-1.45
		C57,78.18,56.53,78,56,78c-0.57,0-1.03,0.18-1.4,0.55C54.2,78.95,54,79.43,54,80c0,0.53,0.2,1,0.6,1.4c0.37,0.4,0.83,0.6,1.4,0.6
		c0.53,0,1-0.2,1.4-0.6C57.8,81,58,80.53,58,80"/>
	<path class="st8" d="M68.15,89.8c-1.13,1.07-2.48,1.6-4.05,1.6c-1.57,0-2.97-0.57-4.2-1.7v-0.05l-0.5-0.55
		c-0.23-0.3-0.33-0.62-0.3-0.95c0.03-0.33,0.2-0.6,0.5-0.8c0.27-0.27,0.57-0.37,0.9-0.3l0.85,0.5l0.3,0.35c0.73,0.67,1.55,1,2.45,1
		c0.97,0,1.78-0.33,2.45-1l0.1-0.1l0.15-0.15c0.17-0.33,0.42-0.52,0.75-0.55l0.9,0.1l0.65,0.75l-0.2,1L68.15,89.8"/>
	<path class="st9" d="M78,80c0,0.53-0.2,1-0.6,1.4C77,81.8,76.53,82,76,82c-0.57,0-1.03-0.2-1.4-0.6C74.2,81,74,80.53,74,80
		c0-0.57,0.2-1.05,0.6-1.45C74.97,78.18,75.43,78,76,78c0.53,0,1,0.18,1.4,0.55C77.8,78.95,78,79.43,78,80 M58,80
		c0,0.53-0.2,1-0.6,1.4C57,81.8,56.53,82,56,82c-0.57,0-1.03-0.2-1.4-0.6C54.2,81,54,80.53,54,80c0-0.57,0.2-1.05,0.6-1.45
		C54.97,78.18,55.43,78,56,78c0.53,0,1,0.18,1.4,0.55C57.8,78.95,58,79.43,58,80"/>
	<path class="st10" d="M56.75,67c0,1.1-0.4,2.03-1.2,2.8c-0.77,0.8-1.7,1.2-2.8,1.2s-2.05-0.4-2.85-1.2
		c-0.77-0.77-1.15-1.7-1.15-2.8s0.38-2.05,1.15-2.85c0.8-0.77,1.75-1.15,2.85-1.15s2.03,0.38,2.8,1.15
		C56.35,64.95,56.75,65.9,56.75,67"/>
	<path class="st11" d="M84,60.25c0,3.3-1.2,6.1-3.6,8.4c-2.3,2.4-5.1,3.6-8.4,3.6s-6.15-1.2-8.55-3.6c-2.3-2.3-3.45-5.1-3.45-8.4
		s1.15-6.15,3.45-8.55c2.4-2.3,5.25-3.45,8.55-3.45s6.1,1.15,8.4,3.45C82.8,54.1,84,56.95,84,60.25"/>
</g>
</svg>
