<?xml version="1.0" encoding="utf-8"?>
<!-- Generator: Adobe Illustrator 28.0.0, SVG Export Plug-In . SVG Version: 6.00 Build 0)  -->
<svg version="1.1" id="Layer_1" xmlns="http://www.w3.org/2000/svg" xmlns:xlink="http://www.w3.org/1999/xlink" x="0px" y="0px"
	 viewBox="0 0 128 128" style="enable-background:new 0 0 128 128;" xml:space="preserve">
<style type="text/css">
	.st0{fill:#353541;}
	.st1{fill:url(#SVGID_1_);}
	.st2{fill:url(#SVGID_00000001637598009518763980000018053619414543782547_);}
	.st3{fill:url(#SVGID_00000044857242999690683060000014190033880690613660_);}
	.st4{fill:url(#SVGID_00000175282817937537646080000003614190096094772923_);}
	.st5{fill:#C7B6FF;}
	.st6{fill:#353541;fill-opacity:0.2;}
	.st7{fill:url(#SVGID_00000118359166105827011180000012513835461569946761_);}
	.st8{fill:#5D5D67;}
	.st9{fill:#7161AA;}
	.st10{fill:#D2C4FF;}
	.st11{fill:#FFFFFF;fill-opacity:0.2;}
</style>
<g>
	<path class="st0" d="M71.15,31c10.67,0,19.8,3.78,27.4,11.35c7.5,7.5,11.25,16.57,11.25,27.2c0,9.57-2.98,17.88-8.95,24.95
		c1.53,1.33,2.97,2.83,4.3,4.5v0.05c1.67,2.1,2.37,4.5,2.1,7.2v0.1c-0.33,2.67-1.55,4.85-3.65,6.55c-2.17,1.73-4.58,2.47-7.25,2.2
		H96.3l-3.3-0.95v3.9c0,2.73-0.97,5.08-2.9,7.05c-1.97,1.93-4.32,2.9-7.05,2.9c-2.73,0-5.07-0.97-7-2.9
		c-1.73-1.73-2.68-3.77-2.85-6.1l-2,0.05l-2.35-0.1c-0.23,2.37-1.2,4.42-2.9,6.15c-1.97,1.93-4.32,2.9-7.05,2.9
		c-2.73,0-5.07-0.97-7-2.9c-1.97-1.97-2.93-4.32-2.9-7.05v-3.9l-3.25,0.95H45.7c-2.7,0.27-5.12-0.47-7.25-2.2
		c-2.13-1.7-3.35-3.88-3.65-6.55v-0.1c-0.3-2.7,0.38-5.1,2.05-7.2L36.9,99c1.37-1.73,2.87-3.3,4.5-4.7c-5.93-7-8.9-15.25-8.9-24.75
		c0-10.63,3.8-19.72,11.4-27.25v0.05C51.43,34.78,60.52,31,71.15,31"/>
	
		<linearGradient id="SVGID_1_" gradientUnits="userSpaceOnUse" x1="-45542.6523" y1="-36253.1797" x2="-43904.25" y2="-36253.1797" gradientTransform="matrix(0 -7.232666e-03 -0.017 0 -533.1678 -207.9198)">
		<stop  offset="0" style="stop-color:#C7B6FF"/>
		<stop  offset="1" style="stop-color:#9B86EC"/>
	</linearGradient>
	<path class="st1" d="M89,118.05c0,1.63-0.58,3.03-1.75,4.2s-2.57,1.75-4.2,1.75c-1.63,0-3.03-0.58-4.2-1.75
		c-1.17-1.17-1.73-2.57-1.7-4.2v-16c-0.03-1.63,0.53-3.03,1.7-4.2c1.17-1.17,2.57-1.73,4.2-1.7c1.63-0.03,3.03,0.53,4.2,1.7
		c1.17,1.17,1.75,2.57,1.75,4.2V118.05"/>
	
		<linearGradient id="SVGID_00000036946554515484927810000008929115870193248438_" gradientUnits="userSpaceOnUse" x1="-45542.6523" y1="-36253.1797" x2="-43904.25" y2="-36253.1797" gradientTransform="matrix(0 -7.232666e-03 -0.017 0 -557.3177 -207.9198)">
		<stop  offset="0" style="stop-color:#C7B6FF"/>
		<stop  offset="1" style="stop-color:#9B86EC"/>
	</linearGradient>
	<path style="fill:url(#SVGID_00000036946554515484927810000008929115870193248438_);" d="M64.85,118.05c0,1.63-0.58,3.03-1.75,4.2
		c-1.17,1.17-2.57,1.75-4.2,1.75s-3.03-0.58-4.2-1.75c-1.17-1.17-1.73-2.57-1.7-4.2v-16c-0.03-1.63,0.53-3.03,1.7-4.2
		c1.17-1.17,2.57-1.73,4.2-1.7c1.63-0.03,3.03,0.53,4.2,1.7c1.17,1.17,1.75,2.57,1.75,4.2V118.05"/>
	
		<linearGradient id="SVGID_00000021805498331272209340000002521336036187565459_" gradientUnits="userSpaceOnUse" x1="-64824.4805" y1="-16741.1484" x2="-63186.0781" y2="-16741.1484" gradientTransform="matrix(-7.446289e-03 -7.446289e-03 -8.758545e-03 8.758545e-03 -529.7692 -227.1344)">
		<stop  offset="0" style="stop-color:#C7B6FF"/>
		<stop  offset="1" style="stop-color:#9B86EC"/>
	</linearGradient>
	<path style="fill:url(#SVGID_00000021805498331272209340000002521336036187565459_);" d="M102,101.5c1,1.27,1.42,2.72,1.25,4.35
		c-0.2,1.6-0.93,2.92-2.2,3.95c-1.27,1.03-2.7,1.47-4.3,1.3c-1.63-0.2-2.97-0.93-4-2.2c-2.47-3.03-5.5-5.2-9.1-6.5
		c-1.57-0.6-2.68-1.63-3.35-3.1c-0.7-1.5-0.77-3-0.2-4.5c0.57-1.57,1.6-2.68,3.1-3.35l4.5-0.2C93.4,93.32,98.17,96.73,102,101.5"/>
	
		<linearGradient id="SVGID_00000085224431629023934820000006059107847934038414_" gradientUnits="userSpaceOnUse" x1="19109.9473" y1="54617.7383" x2="20748.3477" y2="54617.7383" gradientTransform="matrix(7.446289e-03 -7.446289e-03 8.758545e-03 8.758545e-03 -578.2308 -227.1344)">
		<stop  offset="0" style="stop-color:#C7B6FF"/>
		<stop  offset="1" style="stop-color:#9B86EC"/>
	</linearGradient>
	<path style="fill:url(#SVGID_00000085224431629023934820000006059107847934038414_);" d="M40,101.5c3.83-4.77,8.6-8.18,14.3-10.25
		l4.5,0.2c1.5,0.67,2.53,1.78,3.1,3.35c0.57,1.5,0.5,3-0.2,4.5c-0.67,1.47-1.78,2.5-3.35,3.1c-3.6,1.3-6.63,3.47-9.1,6.5
		c-1.03,1.27-2.37,2-4,2.2c-1.6,0.17-3.03-0.27-4.3-1.3c-1.27-1.03-2-2.35-2.2-3.95C38.58,104.22,39,102.77,40,101.5"/>
	<path class="st0" d="M98.75,69.55c0,7.67-2.67,14.2-8,19.6c-5.47,5.37-12,8.05-19.6,8.05c-7.6,0-14.08-2.68-19.45-8.05
		c-5.47-5.4-8.2-11.93-8.2-19.6c0-7.6,2.73-14.05,8.2-19.35v-0.05C57.07,44.72,63.55,42,71.15,42s14.13,2.72,19.6,8.15
		C96.08,55.48,98.75,61.95,98.75,69.55"/>
	<path class="st5" d="M54.6,108.6c-4.3-4.13-5.73-8.98-4.3-14.55l-1.3-20c-0.2-5.47,1.8-10.17,6-14.1
		c3.13-3.03,6.82-4.92,11.05-5.65l4.55-0.45c6.17,0,11.38,2.03,15.65,6.1c4.13,3.93,6.13,8.63,6,14.1l-1.2,20
		c2.17,5.57,1.08,10.42-3.25,14.55c-4.43,4.3-9.97,6.45-16.6,6.45C64.6,115.05,59.07,112.9,54.6,108.6"/>
	<path class="st6" d="M89.5,98.4c0,2.3-1.77,4.25-5.3,5.85c-3.47,1.67-7.7,2.5-12.7,2.5c-4.97,0-9.2-0.83-12.7-2.5
		c-3.53-1.6-5.3-3.55-5.3-5.85l0.2-1.2h35.65L89.5,98.4"/>
	
		<linearGradient id="SVGID_00000167397234672533391190000006511395096917898394_" gradientUnits="userSpaceOnUse" x1="6105.8232" y1="15246.6875" x2="7744.2236" y2="15246.6875" gradientTransform="matrix(0 0.0423 0.0422 0 -572.8141 -223.2602)">
		<stop  offset="0" style="stop-color:#FFFFFF"/>
		<stop  offset="1" style="stop-color:#C4E7F3"/>
	</linearGradient>
	<path style="fill:url(#SVGID_00000167397234672533391190000006511395096917898394_);" d="M95.7,45.15
		c6.73,6.73,10.1,14.87,10.1,24.4c0,9.63-3.37,17.83-10.1,24.6c-6.8,6.7-14.98,10.05-24.55,10.05c-9.53,0-17.68-3.35-24.45-10.05
		c-6.8-6.77-10.2-14.97-10.2-24.6c0-9.53,3.4-17.67,10.2-24.4C53.47,38.38,61.62,35,71.15,35C80.72,35,88.9,38.38,95.7,45.15
		 M98.75,69.55c0-7.6-2.67-14.07-8-19.4c-5.47-5.43-12-8.15-19.6-8.15s-14.08,2.72-19.45,8.15v0.05c-5.47,5.3-8.2,11.75-8.2,19.35
		c0,7.67,2.73,14.2,8.2,19.6c5.37,5.37,11.85,8.05,19.45,8.05c7.6,0,14.13-2.68,19.6-8.05C96.08,83.75,98.75,77.22,98.75,69.55"/>
	<path class="st5" d="M68.35,52.95l0.3,0.85l0.1-0.15c0.93-1.5,1.98-2.67,3.15-3.5c1.27-0.93,2.3-1.18,3.1-0.75
		c0.8,0.47,1.13,1.5,1,3.1c-0.17,1.4-0.67,2.88-1.5,4.45l-0.2,0.25c-0.43,0.8-1.08,1.32-1.95,1.55c-0.9,0.2-1.75,0.08-2.55-0.35
		c-0.8-0.47-1.3-1.12-1.5-1.95l-0.15-1l-0.6,0.5l-1.7,0.25c-0.57-0.17-1-0.52-1.3-1.05L64.45,55c-0.57-1.03-0.9-2.02-1-2.95
		c-0.1-1.07,0.12-1.75,0.65-2.05s1.22-0.13,2.05,0.5c0.77,0.53,1.47,1.3,2.1,2.3L68.35,52.95"/>
	<path class="st0" d="M76,73c0,1.37-0.5,2.53-1.5,3.5c-0.97,1-2.13,1.5-3.5,1.5c-1.43,0-2.62-0.5-3.55-1.5
		C66.48,75.53,66,74.37,66,73c0-1.4,0.48-2.6,1.45-3.6C68.38,68.47,69.57,68,71,68c1.37,0,2.53,0.47,3.5,1.4
		C75.5,70.4,76,71.6,76,73 M75,72c0-0.57-0.2-1.05-0.6-1.45C74,70.18,73.53,70,73,70c-0.57,0-1.03,0.18-1.4,0.55
		C71.2,70.95,71,71.43,71,72c0,0.53,0.2,1,0.6,1.4c0.37,0.4,0.83,0.6,1.4,0.6c0.53,0,1-0.2,1.4-0.6C74.8,73,75,72.53,75,72 M86,82
		c0,1.37-0.5,2.53-1.5,3.5c-0.97,1-2.13,1.5-3.5,1.5c-1.43,0-2.62-0.5-3.55-1.5C76.48,84.53,76,83.37,76,82c0-1.4,0.48-2.6,1.45-3.6
		C78.38,77.47,79.57,77,81,77c1.37,0,2.53,0.47,3.5,1.4C85.5,79.4,86,80.6,86,82 M85,81c0-0.57-0.2-1.05-0.6-1.45
		C84,79.18,83.53,79,83,79c-0.57,0-1.03,0.18-1.4,0.55C81.2,79.95,81,80.43,81,81c0,0.53,0.2,1,0.6,1.4c0.37,0.4,0.83,0.6,1.4,0.6
		c0.53,0,1-0.2,1.4-0.6C84.8,82,85,81.53,85,81 M66,82c0,1.37-0.5,2.53-1.5,3.5c-0.97,1-2.13,1.5-3.5,1.5c-1.43,0-2.62-0.5-3.55-1.5
		C56.48,84.53,56,83.37,56,82c0-1.4,0.48-2.6,1.45-3.6C58.38,77.47,59.57,77,61,77c1.37,0,2.53,0.47,3.5,1.4
		C65.5,79.4,66,80.6,66,82 M65,81c0-0.57-0.2-1.05-0.6-1.45C64,79.18,63.53,79,63,79c-0.57,0-1.03,0.18-1.4,0.55
		C61.2,79.95,61,80.43,61,81c0,0.53,0.2,1,0.6,1.4c0.37,0.4,0.83,0.6,1.4,0.6c0.53,0,1-0.2,1.4-0.6C64.8,82,65,81.53,65,81"/>
	<path class="st8" d="M65,81c0,0.53-0.2,1-0.6,1.4C64,82.8,63.53,83,63,83c-0.57,0-1.03-0.2-1.4-0.6C61.2,82,61,81.53,61,81
		c0-0.57,0.2-1.05,0.6-1.45C61.97,79.18,62.43,79,63,79c0.53,0,1,0.18,1.4,0.55C64.8,79.95,65,80.43,65,81 M75,72
		c0,0.53-0.2,1-0.6,1.4C74,73.8,73.53,74,73,74c-0.57,0-1.03-0.2-1.4-0.6C71.2,73,71,72.53,71,72c0-0.57,0.2-1.05,0.6-1.45
		C71.97,70.18,72.43,70,73,70c0.53,0,1,0.18,1.4,0.55C74.8,70.95,75,71.43,75,72 M85,81c0,0.53-0.2,1-0.6,1.4
		C84,82.8,83.53,83,83,83c-0.57,0-1.03-0.2-1.4-0.6C81.2,82,81,81.53,81,81c0-0.57,0.2-1.05,0.6-1.45C81.97,79.18,82.43,79,83,79
		c0.53,0,1,0.18,1.4,0.55C84.8,79.95,85,80.43,85,81"/>
	<path class="st9" d="M75.15,89.7c-1.13,1.07-2.48,1.6-4.05,1.6c-1.57,0-2.97-0.57-4.2-1.7v-0.05L66.4,89
		c-0.23-0.3-0.33-0.62-0.3-0.95c0.03-0.33,0.2-0.6,0.5-0.8c0.27-0.27,0.57-0.37,0.9-0.3l0.85,0.5l0.3,0.35c0.73,0.67,1.55,1,2.45,1
		c0.97,0,1.78-0.33,2.45-1l0.1-0.1l0.15-0.15c0.17-0.33,0.42-0.52,0.75-0.55l0.9,0.1l0.65,0.75l-0.2,1L75.15,89.7"/>
	<path class="st10" d="M63.75,67c0,1.1-0.4,2.03-1.2,2.8c-0.77,0.8-1.7,1.2-2.8,1.2s-2.05-0.4-2.85-1.2
		c-0.77-0.77-1.15-1.7-1.15-2.8s0.38-2.05,1.15-2.85c0.8-0.77,1.75-1.15,2.85-1.15s2.03,0.38,2.8,1.15
		C63.35,64.95,63.75,65.9,63.75,67"/>
	<path class="st11" d="M91,60.25c0,3.3-1.2,6.1-3.6,8.4c-2.3,2.4-5.1,3.6-8.4,3.6s-6.15-1.2-8.55-3.6c-2.3-2.3-3.45-5.1-3.45-8.4
		s1.15-6.15,3.45-8.55c2.4-2.3,5.25-3.45,8.55-3.45s6.1,1.15,8.4,3.45C89.8,54.1,91,56.95,91,60.25"/>
</g>
</svg>
