<?xml version="1.0" encoding="utf-8"?>
<!-- Generator: Adobe Illustrator 28.0.0, SVG Export Plug-In . SVG Version: 6.00 Build 0)  -->
<svg version="1.1" id="Layer_1" xmlns="http://www.w3.org/2000/svg" xmlns:xlink="http://www.w3.org/1999/xlink" x="0px" y="0px"
	 viewBox="0 0 1366 768" style="enable-background:new 0 0 1366 768;" xml:space="preserve">
<style type="text/css">
	.st0{fill:#838796;}
	.st1{fill:#727685;}
	.st2{fill:#9B9DAD;}
	.st3{fill:#616374;}
</style>
<path class="st0" d="M701.43,364.72l-0.05-0.05l0.05,0.7v5.3l-2.4,2.4l2.4,2.4v22.9c0,1.33-0.67,2-2,2h-33c-1.33,0-2-0.67-2-2v-3.6
	l2.75-2.75l-2.75-2.75v-23.9l0.05-0.5l0.05-0.2c0.17-0.87,0.8-1.3,1.9-1.3h33C700.53,363.37,701.2,363.82,701.43,364.72"/>
<path class="st1" d="M701.43,364.72c-0.23-0.9-0.9-1.35-2-1.35h-33c-1.1,0-1.73,0.43-1.9,1.3l-0.05,0.2l-0.05,0.5v23.9l2.75,2.75
	l-2.75,2.75v3.6c0,1.33,0.67,2,2,2h33c1.33,0,2-0.67,2-2v-22.9l-2.4-2.4l2.4-2.4v-5.3l-0.05-0.7L701.43,364.72 M703.38,364.42
	l0.05,0.95v33c0,2.67-1.33,4-4,4h-33c-2.67,0-4-1.33-4-4v-33l0.1-0.95c0.27-2.03,1.57-3.05,3.9-3.05h33
	C701.76,361.37,703.08,362.38,703.38,364.42"/>
<path class="st2" d="M703.38,364.42c-0.3-2.03-1.62-3.05-3.95-3.05h-33c-2.33,0-3.63,1.02-3.9,3.05l-0.1,0.95v33c0,2.67,1.33,4,4,4
	h33c2.67,0,4-1.33,4-4v-33L703.38,364.42 M660.43,398.62v-33.25c0-4,2-6,6-6h33c4,0,6,2,6,6v33.25c-0.1,3.83-2.1,5.75-6,5.75h-33
	C662.53,404.37,660.53,402.45,660.43,398.62"/>
<path class="st3" d="M660.43,398.62c0.1,3.83,2.1,5.75,6,5.75h33c3.9,0,5.9-1.92,6-5.75v3.75c0,4-2,6-6,6h-33c-4,0-6-2-6-6V398.62"
	/>
</svg>
