<?xml version="1.0" encoding="utf-8"?>
<!-- Generator: Adobe Illustrator 28.0.0, SVG Export Plug-In . SVG Version: 6.00 Build 0)  -->
<svg version="1.1" id="Layer_1" xmlns="http://www.w3.org/2000/svg" xmlns:xlink="http://www.w3.org/1999/xlink" x="0px" y="0px"
	 viewBox="0 0 1366 768" style="enable-background:new 0 0 1366 768;" xml:space="preserve">
<style type="text/css">
	.st0{fill:#838796;}
	.st1{fill:#727685;}
	.st2{fill:#9B9DAD;}
</style>
<path class="st0" d="M701.43,366.72l-0.05-0.05l0.05,0.7v5.3l-2.4,2.4l2.4,2.4v22.9c0,1.3-0.62,1.97-1.85,2h-33.25
	c-1.27-0.03-1.9-0.7-1.9-2v-3.6l2.75-2.75l-2.75-2.75v-23.9l0.05-0.5l0.05-0.2c0.17-0.87,0.8-1.3,1.9-1.3h33
	C700.53,365.37,701.2,365.82,701.43,366.72"/>
<path class="st1" d="M701.43,366.72c-0.23-0.9-0.9-1.35-2-1.35h-33c-1.1,0-1.73,0.43-1.9,1.3l-0.05,0.2l-0.05,0.5v23.9l2.75,2.75
	l-2.75,2.75v3.6c0,1.3,0.63,1.97,1.9,2h33.25c1.23-0.03,1.85-0.7,1.85-2v-22.9l-2.4-2.4l2.4-2.4v-5.3l-0.05-0.7L701.43,366.72
	 M699.43,363.37c2.33,0,3.65,1.02,3.95,3.05l0.05,0.95v33l-0.05,1c-0.3,2-1.62,3-3.95,3h-33c-2.33,0-3.63-1-3.9-3l-0.1-1v-33
	l0.1-0.95c0.27-2.03,1.57-3.05,3.9-3.05H699.43"/>
<path class="st2" d="M699.43,363.37h-33c-2.33,0-3.63,1.02-3.9,3.05l-0.1,0.95v33l0.1,1c0.27,2,1.57,3,3.9,3h33
	c2.33,0,3.65-1,3.95-3l0.05-1v-33l-0.05-0.95C703.08,364.38,701.76,363.37,699.43,363.37 M705.43,367.37v33v0.25
	c-0.1,3.83-2.1,5.75-6,5.75h-33h-0.25h-0.15h-0.2h-0.1h-0.1h-0.1c-3.13-0.27-4.82-1.98-5.05-5.15l-0.05-0.6v-0.25v-33c0-4,2-6,6-6
	h33C703.43,361.37,705.43,363.37,705.43,367.37"/>
</svg>
