<?xml version="1.0" encoding="utf-8"?>
<!-- Generator: Adobe Illustrator 28.0.0, SVG Export Plug-In . SVG Version: 6.00 Build 0)  -->
<svg version="1.1" id="Layer_1" xmlns="http://www.w3.org/2000/svg" xmlns:xlink="http://www.w3.org/1999/xlink" x="0px" y="0px"
	 viewBox="0 0 1366 768" style="enable-background:new 0 0 1366 768;" xml:space="preserve">
<style type="text/css">
	.st0{fill-opacity:0.2;}
	.st1{fill-opacity:0.102;}
</style>
<path class="st0" d="M687.43,376.87h-0.15h-0.15c-2.3,0.07-4.3,0.92-6,2.55l-0.15,0.15c-1.47,1.53-2.3,3.3-2.5,5.3l-0.05-1l0.05-1
	c0.2-2,1.03-3.77,2.5-5.3l0.15-0.15c1.7-1.63,3.7-2.48,6-2.55h0.15h0.15V376.87"/>
<path class="st1" d="M687.43,376.87v16h-0.15h-0.15c-2.33-0.03-4.35-0.92-6.05-2.65h-0.05c-1.5-1.53-2.35-3.32-2.55-5.35
	c0.2-2,1.03-3.77,2.5-5.3l0.15-0.15c1.7-1.63,3.7-2.48,6-2.55h0.15H687.43"/>
</svg>
