<?xml version="1.0" encoding="utf-8"?>
<!-- Generator: Adobe Illustrator 28.0.0, SVG Export Plug-In . SVG Version: 6.00 Build 0)  -->
<svg version="1.1" id="Layer_1" xmlns="http://www.w3.org/2000/svg" xmlns:xlink="http://www.w3.org/1999/xlink" x="0px" y="0px"
	 viewBox="0 0 1366 768" style="enable-background:new 0 0 1366 768;" xml:space="preserve">
<style type="text/css">
	.st0{fill-opacity:0.2;}
	.st1{fill-opacity:0.102;}
</style>
<path class="st0" d="M678.43,376.87v-2h0.15h0.15c2.3,0.07,4.3,0.92,6,2.55l0.15,0.15c1.47,1.53,2.3,3.3,2.5,5.3l0.05,1l-0.05,1
	c-0.2-2-1.03-3.77-2.5-5.3l-0.15-0.15c-1.7-1.63-3.7-2.48-6-2.55h-0.15H678.43"/>
<path class="st1" d="M678.43,376.87h0.15h0.15c2.3,0.07,4.3,0.92,6,2.55l0.15,0.15c1.47,1.53,2.3,3.3,2.5,5.3
	c-0.2,2.03-1.05,3.82-2.55,5.35h-0.05c-1.7,1.73-3.72,2.62-6.05,2.65h-0.15h-0.15V376.87"/>
</svg>
