<?xml version="1.0" encoding="utf-8"?>
<!-- Generator: Adobe Illustrator 28.0.0, SVG Export Plug-In . SVG Version: 6.00 Build 0)  -->
<svg version="1.1" id="Layer_1" xmlns="http://www.w3.org/2000/svg" xmlns:xlink="http://www.w3.org/1999/xlink" x="0px" y="0px"
	 viewBox="0 0 1366 768" style="enable-background:new 0 0 1366 768;" xml:space="preserve">
<style type="text/css">
	.st0{fill:#CD5D12;}
	.st1{fill:#FA8132;}
	.st2{fill:#E86A17;}
</style>
<path class="st0" d="M687.43,390.87v2h-0.15h-0.15c-2.33-0.03-4.35-0.92-6.05-2.65h-0.05c-1.73-1.77-2.6-3.88-2.6-6.35l0.05-1
	c0.2-2,1.03-3.77,2.5-5.3l0.15-0.15c1.7-1.63,3.7-2.48,6-2.55h0.15h0.15v2h-0.15h-0.15c-1.77,0.07-3.32,0.73-4.65,2l-0.05,0.05
	c-1.1,1.13-1.73,2.45-1.9,3.95l-0.1,1c0,1.93,0.68,3.58,2.05,4.95c1.33,1.3,2.88,1.98,4.65,2.05h0.15H687.43"/>
<path class="st1" d="M687.43,390.87h-0.15h-0.15c-1.77-0.07-3.32-0.75-4.65-2.05c-1.37-1.37-2.05-3.02-2.05-4.95l0.1-1
	c0.17-1.5,0.8-2.82,1.9-3.95l0.05-0.05c1.33-1.27,2.88-1.93,4.65-2h0.15h0.15v6h-4.9l-0.1,1c0,1.37,0.48,2.53,1.45,3.5
	c0.93,0.93,2.02,1.43,3.25,1.5h0.15h0.15V390.87"/>
<path class="st2" d="M687.43,382.87v6h-0.15h-0.15c-1.23-0.07-2.32-0.57-3.25-1.5c-0.97-0.97-1.45-2.13-1.45-3.5l0.1-1H687.43"/>
</svg>
