<?xml version="1.0" encoding="utf-8"?>
<!-- Generator: Adobe Illustrator 28.0.0, SVG Export Plug-In . SVG Version: 6.00 Build 0)  -->
<svg version="1.1" id="Layer_1" xmlns="http://www.w3.org/2000/svg" xmlns:xlink="http://www.w3.org/1999/xlink" x="0px" y="0px"
	 viewBox="0 0 1366 768" style="enable-background:new 0 0 1366 768;" xml:space="preserve">
<style type="text/css">
	.st0{fill:#88E060;}
	.st1{fill:#5FB13A;}
	.st2{fill:#73CD4B;}
</style>
<path class="st0" d="M678.43,376.87h0.15h0.15c1.77,0.07,3.32,0.73,4.65,2l0.05,0.05c1.1,1.13,1.73,2.45,1.9,3.95l0.1,1
	c0,1.93-0.68,3.58-2.05,4.95c-1.33,1.3-2.88,1.98-4.65,2.05h-0.15h-0.15v-2h0.15h0.15c1.23-0.07,2.32-0.57,3.25-1.5
	c0.97-0.97,1.45-2.13,1.45-3.5l-0.1-1h-4.9V376.87"/>
<path class="st1" d="M678.43,376.87v-2h0.15h0.15c2.3,0.07,4.3,0.92,6,2.55l0.15,0.15c1.47,1.53,2.3,3.3,2.5,5.3l0.05,1
	c0,2.47-0.87,4.58-2.6,6.35h-0.05c-1.7,1.73-3.72,2.62-6.05,2.65h-0.15h-0.15v-2h0.15h0.15c1.77-0.07,3.32-0.75,4.65-2.05
	c1.37-1.37,2.05-3.02,2.05-4.95l-0.1-1c-0.17-1.5-0.8-2.82-1.9-3.95l-0.05-0.05c-1.33-1.27-2.88-1.93-4.65-2h-0.15H678.43"/>
<path class="st2" d="M678.43,382.87h4.9l0.1,1c0,1.37-0.48,2.53-1.45,3.5c-0.93,0.93-2.02,1.43-3.25,1.5h-0.15h-0.15V382.87"/>
</svg>
