<?xml version="1.0" encoding="utf-8"?>
<!-- Generator: Adobe Illustrator 28.0.0, SVG Export Plug-In . SVG Version: 6.00 Build 0)  -->
<svg version="1.1" id="Layer_1" xmlns="http://www.w3.org/2000/svg" xmlns:xlink="http://www.w3.org/1999/xlink" x="0px" y="0px"
	 viewBox="0 0 1366 768" style="enable-background:new 0 0 1366 768;" xml:space="preserve">
<style type="text/css">
	.st0{fill-opacity:0.102;}
	.st1{fill:#97714A;}
</style>
<path class="st0" d="M728.93,341.82c-0.03-1.97-1.07-2.95-3.1-2.95h-38.55l-2.85,2.9l-2.9-2.9h-41.55c-2,0-3.02,0.98-3.05,2.95v-1.9
	c0-2.03,1.02-3.05,3.05-3.05h41.55l2.9,2.9l2.85-2.9h38.55c2.07,0,3.1,1.02,3.1,3.05V341.82 M637.68,403.87l1,1l-1.75,1.7v-2
	L637.68,403.87 M638.73,413.32l1,1l-2.8,2.8v-2L638.73,413.32 M728.93,422.12l-4.1-4.1l1-1l3.1,3.1V422.12 M728.93,358.72l-3.1-3.1
	l1-1l2.1,2.1V358.72"/>
<path class="st1" d="M728.93,358.72v55.15l-3.1,3.15l-1,1l4.1,4.1v5.7c0,2.03-1.03,3.05-3.1,3.05h-72.65l-2.2-2.2l-2.2,2.2h-8.8
	c-2.03,0-3.05-1.02-3.05-3.05v-10.7l2.8-2.8l-1-1l-1.8-1.8v-4.95l1.75-1.7l-1-1l-0.75-0.75v-61.3c0.03-1.97,1.05-2.95,3.05-2.95
	h41.55l2.9,2.9l2.85-2.9h38.55c2.03,0,3.07,0.98,3.1,2.95v10.65l-2.1,2.15l-1,1L728.93,358.72"/>
</svg>
